<svg width="37" height="33" viewBox="0 0 37 33" fill="none" xmlns="http://www.w3.org/2000/svg">
<path d="M14.9028 15.2884C16.9455 14.3087 18.0118 12.8263 18.0118 10.5188C18.0118 5.96846 14.633 4.85986 10.7339 4.85986H0V27.702H11.0358C15.1726 27.702 19.0589 25.7104 19.0589 21.0698C19.0589 18.2017 17.7035 16.0812 14.9028 15.2884ZM5.00399 8.75928H9.69965C11.5047 8.75928 13.1299 9.26846 13.1299 11.3696C13.1299 13.3097 11.8644 14.0896 10.0786 14.0896H5.00399V8.75928ZM10.3549 23.822H5.00399V17.5313H10.4576C12.6609 17.5313 14.0549 18.453 14.0549 20.7927C14.0549 23.1001 12.3911 23.822 10.3549 23.822ZM33.3835 8.3081H24.1528V6.05869H33.3835V8.3081ZM37 19.6712C37 14.7792 34.1479 10.6993 28.9769 10.6993C23.9536 10.6993 20.5427 14.4892 20.5427 19.452C20.5427 24.6019 23.7738 28.1339 28.9769 28.1339C32.9146 28.1339 35.4648 26.355 36.6917 22.5716H32.6962C32.2658 23.9831 30.4929 24.7308 29.1182 24.7308C26.4653 24.7308 25.0714 23.171 25.0714 20.522H36.9615C36.9807 20.2513 37 19.9612 37 19.6712ZM25.0778 17.6603C25.2255 15.4882 26.6644 14.1282 28.8356 14.1282C31.1095 14.1282 32.253 15.4688 32.4457 17.6603H25.0778Z" fill="white"/>
</svg>
