<svg width="68" height="61" viewBox="0 0 68 61" fill="none" xmlns="http://www.w3.org/2000/svg">
<path d="M49.6483 35.6446C49.0879 35.6446 48.5401 35.4784 48.0741 35.1671C47.6082 34.8557 47.2451 34.4132 47.0306 33.8955C46.8162 33.3778 46.76 32.8081 46.8694 32.2585C46.9787 31.7089 47.2485 31.204 47.6448 30.8078C48.041 30.4115 48.5459 30.1417 49.0955 30.0323C49.6451 29.923 50.2148 29.9791 50.7325 30.1936C51.2503 30.408 51.6928 30.7712 52.0041 31.2371C52.3154 31.703 52.4816 32.2508 52.4816 32.8112C52.4816 33.5627 52.1831 34.2833 51.6517 34.8147C51.1204 35.346 50.3997 35.6446 49.6483 35.6446ZM18.3517 35.6446C17.7914 35.6446 17.2436 35.4784 16.7776 35.1671C16.3117 34.8557 15.9485 34.4132 15.7341 33.8955C15.5196 33.3778 15.4635 32.8081 15.5728 32.2585C15.6822 31.7089 15.952 31.204 16.3483 30.8078C16.7445 30.4115 17.2494 30.1417 17.799 30.0323C18.3486 29.923 18.9183 29.9791 19.436 30.1936C19.9537 30.408 20.3962 30.7712 20.7076 31.2371C21.0189 31.703 21.1851 32.2508 21.1851 32.8112C21.1851 33.5627 20.8866 34.2833 20.3552 34.8147C19.8239 35.346 19.1032 35.6446 18.3517 35.6446ZM50.6635 18.5879L56.3231 8.78928C56.4132 8.65509 56.4747 8.50383 56.5039 8.34489C56.5331 8.18595 56.5294 8.0227 56.493 7.86526C56.4565 7.70782 56.3881 7.55953 56.2921 7.42959C56.196 7.29965 56.0742 7.19082 55.9344 7.10984C55.7945 7.02886 55.6395 6.97746 55.479 6.95881C55.3185 6.94017 55.1558 6.95468 55.0012 7.00145C54.8465 7.04822 54.703 7.12625 54.5797 7.2307C54.4564 7.33516 54.3559 7.46383 54.2843 7.60872L48.5539 17.5337C43.9765 15.4807 39.0166 14.4194 34 14.4194C28.9834 14.4194 24.0235 15.4807 19.4461 17.5337L13.7157 7.60872C13.6441 7.46383 13.5436 7.33516 13.4203 7.2307C13.297 7.12625 13.1535 7.04822 12.9988 7.00145C12.8442 6.95468 12.6815 6.94017 12.521 6.95881C12.3605 6.97746 12.2055 7.02886 12.0656 7.10984C11.9258 7.19082 11.804 7.29965 11.7079 7.42959C11.6119 7.55953 11.5435 7.70782 11.507 7.86526C11.4706 8.0227 11.4669 8.18595 11.4961 8.34489C11.5253 8.50383 11.5868 8.65509 11.6769 8.78928L17.3365 18.5879C7.61813 23.8732 0.972778 33.7108 0 45.3334H68C67.0272 33.7108 60.3807 23.8732 50.6635 18.5879Z" fill="black"/>
</svg>
