<svg width="59" height="67" viewBox="0 0 59 67" fill="none" xmlns="http://www.w3.org/2000/svg">
<path d="M29.4605 31.2754L47.3712 13.4785C48.6092 12.2484 50.611 12.2484 51.8357 13.4785L54.8121 16.4359C56.05 17.666 56.05 19.6551 54.8121 20.8721L42.1165 33.4869L54.8121 46.1017C56.05 47.3318 56.05 49.3209 54.8121 50.5379L51.8489 53.5215C50.611 54.7515 48.6092 54.7515 47.3844 53.5215L29.4737 35.7246C28.2226 34.4945 28.2226 32.5055 29.4605 31.2754ZM4.17481 35.7246L22.0855 53.5215C23.3235 54.7515 25.3253 54.7515 26.55 53.5215L29.5264 50.564C30.7643 49.334 30.7643 47.3449 29.5264 46.1279L16.8308 33.5131L29.5264 20.8982C30.7643 19.6682 30.7643 17.6791 29.5264 16.4621L26.55 13.5047C25.3121 12.2746 23.3103 12.2746 22.0855 13.5047L4.17481 31.3015C2.93686 32.5055 2.93686 34.4945 4.17481 35.7246Z" fill="#6C7983"/>
</svg>
