<svg width="24" height="24" viewBox="0 0 24 24" fill="none" xmlns="http://www.w3.org/2000/svg">
<path d="M12 0.375C18.4219 0.375 23.625 5.57812 23.625 12C23.625 18.4219 18.4219 23.625 12 23.625C5.57812 23.625 0.375 18.4219 0.375 12C0.375 5.57812 5.57812 0.375 12 0.375ZM6.5625 14.0625H12V17.3859C12 17.8875 12.6094 18.1406 12.9609 17.7844L18.3187 12.3984C18.5391 12.1781 18.5391 11.8266 18.3187 11.6063L12.9609 6.21563C12.6047 5.85938 12 6.1125 12 6.61406V9.9375H6.5625C6.25313 9.9375 6 10.1906 6 10.5V13.5C6 13.8094 6.25313 14.0625 6.5625 14.0625Z" fill="black"/>
</svg>
