<svg width="37" height="33" viewBox="0 0 37 33" fill="none" xmlns="http://www.w3.org/2000/svg">
<path d="M14.9028 15.2883C16.9455 14.3086 18.0118 12.8262 18.0118 10.5188C18.0118 5.9684 14.633 4.8598 10.7339 4.8598H0V27.702H11.0358C15.1726 27.702 19.0589 25.7104 19.0589 21.0698C19.0589 18.2016 17.7035 16.0811 14.9028 15.2883ZM5.00399 8.75922H9.69965C11.5047 8.75922 13.1299 9.26839 13.1299 11.3696C13.1299 13.3096 11.8644 14.0895 10.0786 14.0895H5.00399V8.75922ZM10.3549 23.8219H5.00399V17.5313H10.4576C12.6609 17.5313 14.0549 18.453 14.0549 20.7926C14.0549 23.1 12.3911 23.8219 10.3549 23.8219ZM33.3835 8.30804H24.1528V6.05863H33.3835V8.30804ZM37 19.6711C37 14.7791 34.1479 10.6993 28.9769 10.6993C23.9536 10.6993 20.5427 14.4891 20.5427 19.452C20.5427 24.6018 23.7738 28.1338 28.9769 28.1338C32.9146 28.1338 35.4648 26.3549 36.6917 22.5715H32.6962C32.2658 23.983 30.4929 24.7307 29.1182 24.7307C26.4653 24.7307 25.0714 23.1709 25.0714 20.5219H36.9615C36.9807 20.2512 37 19.9612 37 19.6711ZM25.0778 17.6602C25.2255 15.4881 26.6644 14.1282 28.8356 14.1282C31.1095 14.1282 32.253 15.4688 32.4457 17.6602H25.0778Z" fill="black"/>
</svg>
