<svg width="56" height="45" viewBox="0 0 56 45" fill="none" xmlns="http://www.w3.org/2000/svg">
<g clip-path="url(#clip0_63:7)">
<path d="M54.6 39.3743H52.4405L31.4598 10.3484L36.1331 3.88407C36.5872 3.25566 36.449 2.37587 35.8234 1.91972L33.5571 0.268254C32.9315 -0.187898 32.0565 -0.0490309 31.6015 0.580266L28 5.56279L24.3976 0.579387C23.9435 -0.0490309 23.0676 -0.188777 22.442 0.267375L20.1775 1.91972C19.5519 2.37587 19.4128 3.25566 19.8678 3.88407L24.5411 10.3484L3.5595 39.3743H1.4C0.6265 39.3743 0 40.0036 0 40.7806V43.5931C0 44.37 0.6265 44.9993 1.4 44.9993H54.6C55.3735 44.9993 56 44.37 56 43.5931V40.7806C56 40.0036 55.3735 39.3743 54.6 39.3743ZM28 25.3118L38.1815 39.3743H17.8185L28 25.3118Z" fill="#6C7983"/>
</g>
<defs>
<clipPath id="clip0_63:7">
<rect width="56" height="45" fill="white"/>
</clipPath>
</defs>
</svg>
