<svg width="110" height="110" viewBox="0 0 110 110" fill="none" xmlns="http://www.w3.org/2000/svg">
<path d="M55 9.16675L29.7917 50.4167H80.2083L55 9.16675ZM55 26.7667L63.8458 41.2501H46.1083L55 26.7667ZM80.2083 59.5834C68.7958 59.5834 59.5833 68.7959 59.5833 80.2084C59.5833 91.6209 68.7958 100.833 80.2083 100.833C91.6208 100.833 100.833 91.6209 100.833 80.2084C100.833 68.7959 91.6208 59.5834 80.2083 59.5834ZM80.2083 91.6668C73.8833 91.6668 68.75 86.5334 68.75 80.2084C68.75 73.8834 73.8833 68.7501 80.2083 68.7501C86.5333 68.7501 91.6667 73.8834 91.6667 80.2084C91.6667 86.5334 86.5333 91.6668 80.2083 91.6668ZM13.75 98.5418H50.4167V61.8751H13.75V98.5418ZM22.9167 71.0418H41.25V89.3751H22.9167V71.0418Z" fill="#6C7983"/>
</svg>
