<svg width="13" height="13" viewBox="0 0 13 13" fill="none" xmlns="http://www.w3.org/2000/svg">
<path d="M12.7969 6.5C12.7969 9.97768 9.97768 12.7969 6.5 12.7969C3.02232 12.7969 0.203125 9.97768 0.203125 6.5C0.203125 3.02232 3.02232 0.203125 6.5 0.203125C9.97768 0.203125 12.7969 3.02232 12.7969 6.5ZM5.77164 9.83414L10.4435 5.16227C10.6022 5.00363 10.6022 4.7464 10.4435 4.58776L9.86901 4.01324C9.71037 3.85458 9.45313 3.85458 9.29447 4.01324L5.48438 7.82331L3.70553 6.04447C3.54689 5.88583 3.28966 5.88583 3.13099 6.04447L2.55648 6.61898C2.39784 6.77762 2.39784 7.03485 2.55648 7.19349L5.19711 9.83412C5.35577 9.99278 5.61298 9.99279 5.77164 9.83414Z" fill="black"/>
</svg>
