<svg width="68" height="55" viewBox="0 0 68 55" fill="none" xmlns="http://www.w3.org/2000/svg">
<g clip-path="url(#clip0_21:4)">
<path d="M29.6331 54.347L23.1518 52.4663C22.4718 52.2751 22.0893 51.5632 22.2806 50.8832L36.7837 0.924454C36.975 0.244454 37.6868 -0.138046 38.3668 0.0532036L44.8481 1.93383C45.5281 2.12508 45.9106 2.83695 45.7193 3.51695L31.2162 53.4757C31.0143 54.1557 30.3131 54.5488 29.6331 54.347ZM17.5206 42.4257L22.1425 37.4957C22.6312 36.9751 22.5993 36.1463 22.0575 35.6682L12.4312 27.2001L22.0575 18.732C22.5993 18.2538 22.6418 17.4251 22.1425 16.9045L17.5206 11.9745C17.0425 11.4645 16.235 11.4326 15.7143 11.9213L0.403721 26.2651C-0.138154 26.7645 -0.138154 27.6251 0.403721 28.1245L15.7143 42.4788C16.235 42.9676 17.0425 42.9463 17.5206 42.4257ZM52.2856 42.4895L67.5962 28.1351C68.1381 27.6357 68.1381 26.7751 67.5962 26.2757L52.2856 11.9107C51.7756 11.4326 50.9681 11.4538 50.4793 11.9638L45.8575 16.8938C45.3687 17.4145 45.4006 18.2432 45.9425 18.7213L55.5687 27.2001L45.9425 35.6682C45.4006 36.1463 45.3581 36.9751 45.8575 37.4957L50.4793 42.4257C50.9575 42.9463 51.765 42.9676 52.2856 42.4895Z" fill="black"/>
</g>
<defs>
<clipPath id="clip0_21:4">
<rect width="68" height="54.4" fill="white"/>
</clipPath>
</defs>
</svg>
