<svg width="49" height="65" viewBox="0 0 49 65" fill="none" xmlns="http://www.w3.org/2000/svg">
<path d="M49 18.2812C49 12.6699 44.4318 8.125 38.7917 8.125C33.1516 8.125 28.5833 12.6699 28.5833 18.2812C28.5833 22.9023 31.6841 26.7998 35.9206 28.0312C35.844 30.0752 35.3846 31.6494 34.5169 32.7158C32.5518 35.1533 28.226 35.5596 23.6451 35.9785C20.0466 36.3086 16.3206 36.6641 13.2708 38.124V19.8428C17.418 18.5479 20.4167 14.7012 20.4167 10.1562C20.4167 4.54492 15.8484 0 10.2083 0C4.56823 0 0 4.54492 0 10.1562C0 14.7012 2.9987 18.5479 7.14583 19.8428V45.1445C2.9987 46.4521 0 50.2988 0 54.8438C0 60.4551 4.56823 65 10.2083 65C15.8484 65 20.4167 60.4551 20.4167 54.8438C20.4167 50.5273 17.7115 46.833 13.8833 45.373C14.2789 44.7129 14.8786 44.1289 15.7846 43.6719C17.8518 42.6309 20.9398 42.3516 24.2193 42.0469C29.6042 41.5518 35.7036 40.9805 39.3021 36.5371C41.0885 34.3281 41.9945 31.4844 42.0583 27.917C46.0906 26.5459 49 22.75 49 18.2812ZM10.2083 8.125C11.3313 8.125 12.25 9.03906 12.25 10.1562C12.25 11.2734 11.3313 12.1875 10.2083 12.1875C9.08542 12.1875 8.16667 11.2734 8.16667 10.1562C8.16667 9.03906 9.08542 8.125 10.2083 8.125ZM10.2083 56.875C9.08542 56.875 8.16667 55.9609 8.16667 54.8438C8.16667 53.7266 9.08542 52.8125 10.2083 52.8125C11.3313 52.8125 12.25 53.7266 12.25 54.8438C12.25 55.9609 11.3313 56.875 10.2083 56.875ZM38.7917 16.25C39.9146 16.25 40.8333 17.1641 40.8333 18.2812C40.8333 19.3984 39.9146 20.3125 38.7917 20.3125C37.6688 20.3125 36.75 19.3984 36.75 18.2812C36.75 17.1641 37.6688 16.25 38.7917 16.25Z" fill="#6C7983"/>
</svg>
