<svg width="68" height="69" viewBox="0 0 68 69" fill="none" xmlns="http://www.w3.org/2000/svg">
<path d="M14.5383 32.4129L32.4122 14.5416L26.5525 8.68195L18.3607 16.8738C18.263 16.9717 18.1469 17.0494 18.0192 17.1023C17.8915 17.1553 17.7545 17.1826 17.6163 17.1826C17.478 17.1826 17.341 17.1553 17.2133 17.1023C17.0856 17.0494 16.9695 16.9717 16.8718 16.8738L15.383 15.385C14.9713 14.9733 14.9713 14.3066 15.383 13.8962L23.5749 5.7043L19.1071 1.23516C17.4615 -0.410391 14.7947 -0.410391 13.1491 1.23516L1.2345 13.1498C-0.409719 14.7953 -0.411047 17.4622 1.2345 19.1077L14.5383 32.4129ZM66.132 16.9004C68.6236 14.4088 68.6222 10.37 66.132 7.87844L60.1222 1.86867C57.6307 -0.622891 53.5905 -0.622891 51.0976 1.86867L44.9856 7.97937L60.02 23.0138L66.132 16.9004ZM41.98 10.9862L2.53473 50.4263L0.0431719 64.6956C-0.292844 66.6201 1.38325 68.2962 3.30903 67.9575L17.5797 65.4553L57.0144 26.0193L41.98 10.9862ZM66.7668 48.8949L62.299 44.4271L54.1072 52.619C53.6954 53.0307 53.0287 53.0307 52.6183 52.619L51.1295 51.1302C50.7191 50.7184 50.7191 50.0517 51.1295 49.6413L59.3214 41.4495L53.459 35.5871L35.5851 53.4584L48.8943 66.7662C50.5398 68.4117 53.2067 68.4117 54.8522 66.7662L66.7668 54.8529C68.4124 53.2073 68.4124 50.5405 66.7668 48.8949Z" fill="black"/>
</svg>
