<svg width="150" height="150" viewBox="0 0 150 150" fill="none" xmlns="http://www.w3.org/2000/svg">
<path d="M81.3006 43.1323H67.3828V55.7865H81.3006V43.1323Z" fill="#099CEC"/>
<path d="M81.3006 58.3345H67.3828V70.8413H81.3006V58.3345Z" fill="#099CEC"/>
<path d="M64.8563 43.1323H50.9385V55.7865H64.8563V43.1323Z" fill="#099CEC"/>
<path d="M97.7657 58.3135H83.8477V70.8206H97.7657V58.3135Z" fill="#099CEC"/>
<path d="M81.3006 27.8247H67.3828V40.6055H81.3006V27.8247Z" fill="#099CEC"/>
<path d="M48.4111 43.1323H34.4937V55.7865H48.4111V43.1323Z" fill="#099CEC"/>
<path d="M64.8563 58.3135H50.9385V70.8206H64.8563V58.3135Z" fill="#099CEC"/>
<path d="M139.582 64.1881C136.55 62.1456 129.56 61.4087 124.191 62.4198C123.496 57.3664 120.674 52.9657 115.537 49.0071L112.589 47.0486L110.631 49.9964C106.756 55.85 105.704 65.4933 109.852 71.8525C108.02 72.8418 104.419 74.1898 99.6608 74.1051H8.1321C6.30046 84.8017 9.35349 98.6984 17.3969 108.236C25.2084 117.48 36.9154 122.175 52.2227 122.175C85.3645 122.175 109.894 106.911 121.369 79.1794C125.876 79.2637 135.603 79.2007 140.594 69.6628C140.909 69.1364 141.983 66.8832 142.383 66.062L139.582 64.1881Z" fill="#099CEC"/>
<path d="M31.9881 58.3135H31.9667H18.0703V70.8206H31.9881V58.3135Z" fill="#099CEC"/>
<path d="M48.4111 58.3135H34.4937V70.8206H48.4111V58.3135Z" fill="#099CEC"/>
</svg>
