<svg width="270" height="69" viewBox="0 0 270 69" fill="none" xmlns="http://www.w3.org/2000/svg">
<rect x="4.5" y="5.5" width="264" height="62" stroke="#7E94FD" stroke-width="3"/>
<rect width="263" height="63" fill="#7E94FD"/>
<path d="M32.0422 22.152C33.8182 22.152 35.3702 22.504 36.6982 23.208C38.0262 23.912 39.0502 24.904 39.7702 26.184C40.5062 27.448 40.8742 28.912 40.8742 30.576C40.8742 32.224 40.5062 33.688 39.7702 34.968C39.0502 36.248 38.0182 37.24 36.6742 37.944C35.3462 38.648 33.8022 39 32.0422 39H25.7302V22.152H32.0422ZM31.7782 35.448C33.3302 35.448 34.5382 35.024 35.4022 34.176C36.2662 33.328 36.6982 32.128 36.6982 30.576C36.6982 29.024 36.2662 27.816 35.4022 26.952C34.5382 26.088 33.3302 25.656 31.7782 25.656H29.8342V35.448H31.7782ZM49.2637 39.192C47.9517 39.192 46.7677 38.912 45.7117 38.352C44.6717 37.792 43.8477 36.992 43.2397 35.952C42.6477 34.912 42.3517 33.696 42.3517 32.304C42.3517 30.928 42.6557 29.72 43.2637 28.68C43.8717 27.624 44.7037 26.816 45.7597 26.256C46.8157 25.696 47.9997 25.416 49.3117 25.416C50.6237 25.416 51.8077 25.696 52.8637 26.256C53.9197 26.816 54.7517 27.624 55.3597 28.68C55.9677 29.72 56.2717 30.928 56.2717 32.304C56.2717 33.68 55.9597 34.896 55.3357 35.952C54.7277 36.992 53.8877 37.792 52.8157 38.352C51.7597 38.912 50.5757 39.192 49.2637 39.192ZM49.2637 35.64C50.0477 35.64 50.7117 35.352 51.2557 34.776C51.8157 34.2 52.0957 33.376 52.0957 32.304C52.0957 31.232 51.8237 30.408 51.2797 29.832C50.7517 29.256 50.0957 28.968 49.3117 28.968C48.5117 28.968 47.8477 29.256 47.3197 29.832C46.7917 30.392 46.5277 31.216 46.5277 32.304C46.5277 33.376 46.7837 34.2 47.2957 34.776C47.8237 35.352 48.4797 35.64 49.2637 35.64ZM77.6729 25.608L74.0489 39H69.5129L67.4009 30.312L65.2169 39H60.7049L57.0569 25.608H61.1609L63.0569 35.184L65.3129 25.608H69.6569L71.9369 35.136L73.8089 25.608H77.6729ZM87.398 25.464C88.966 25.464 90.214 25.976 91.142 27C92.086 28.008 92.558 29.4 92.558 31.176V39H88.478V31.728C88.478 30.832 88.246 30.136 87.782 29.64C87.318 29.144 86.694 28.896 85.91 28.896C85.126 28.896 84.502 29.144 84.038 29.64C83.574 30.136 83.342 30.832 83.342 31.728V39H79.238V25.608H83.342V27.384C83.758 26.792 84.318 26.328 85.022 25.992C85.726 25.64 86.518 25.464 87.398 25.464ZM99.5139 21.24V39H95.4099V21.24H99.5139ZM108.584 39.192C107.272 39.192 106.088 38.912 105.032 38.352C103.992 37.792 103.168 36.992 102.56 35.952C101.968 34.912 101.672 33.696 101.672 32.304C101.672 30.928 101.976 29.72 102.584 28.68C103.192 27.624 104.024 26.816 105.08 26.256C106.136 25.696 107.32 25.416 108.632 25.416C109.944 25.416 111.128 25.696 112.184 26.256C113.24 26.816 114.072 27.624 114.68 28.68C115.288 29.72 115.592 30.928 115.592 32.304C115.592 33.68 115.28 34.896 114.656 35.952C114.048 36.992 113.208 37.792 112.136 38.352C111.08 38.912 109.896 39.192 108.584 39.192ZM108.584 35.64C109.368 35.64 110.032 35.352 110.576 34.776C111.136 34.2 111.416 33.376 111.416 32.304C111.416 31.232 111.144 30.408 110.6 29.832C110.072 29.256 109.416 28.968 108.632 28.968C107.832 28.968 107.168 29.256 106.64 29.832C106.112 30.392 105.848 31.216 105.848 32.304C105.848 33.376 106.104 34.2 106.616 34.776C107.144 35.352 107.8 35.64 108.584 35.64ZM116.953 32.28C116.953 30.904 117.209 29.696 117.721 28.656C118.249 27.616 118.961 26.816 119.857 26.256C120.753 25.696 121.753 25.416 122.857 25.416C123.801 25.416 124.625 25.608 125.329 25.992C126.049 26.376 126.601 26.88 126.985 27.504V25.608H131.089V39H126.985V37.104C126.585 37.728 126.025 38.232 125.305 38.616C124.601 39 123.777 39.192 122.833 39.192C121.745 39.192 120.753 38.912 119.857 38.352C118.961 37.776 118.249 36.968 117.721 35.928C117.209 34.872 116.953 33.656 116.953 32.28ZM126.985 32.304C126.985 31.28 126.697 30.472 126.121 29.88C125.561 29.288 124.873 28.992 124.057 28.992C123.241 28.992 122.545 29.288 121.969 29.88C121.409 30.456 121.129 31.256 121.129 32.28C121.129 33.304 121.409 34.12 121.969 34.728C122.545 35.32 123.241 35.616 124.057 35.616C124.873 35.616 125.561 35.32 126.121 34.728C126.697 34.136 126.985 33.328 126.985 32.304ZM133.242 32.28C133.242 30.904 133.498 29.696 134.01 28.656C134.538 27.616 135.25 26.816 136.146 26.256C137.042 25.696 138.042 25.416 139.146 25.416C140.026 25.416 140.826 25.6 141.546 25.968C142.282 26.336 142.858 26.832 143.274 27.456V21.24H147.378V39H143.274V37.08C142.89 37.72 142.338 38.232 141.618 38.616C140.914 39 140.09 39.192 139.146 39.192C138.042 39.192 137.042 38.912 136.146 38.352C135.25 37.776 134.538 36.968 134.01 35.928C133.498 34.872 133.242 33.656 133.242 32.28ZM143.274 32.304C143.274 31.28 142.986 30.472 142.41 29.88C141.85 29.288 141.162 28.992 140.346 28.992C139.53 28.992 138.834 29.288 138.258 29.88C137.698 30.456 137.418 31.256 137.418 32.28C137.418 33.304 137.698 34.12 138.258 34.728C138.834 35.32 139.53 35.616 140.346 35.616C141.162 35.616 141.85 35.32 142.41 34.728C142.986 34.136 143.274 33.328 143.274 32.304ZM154.737 30.552C154.737 28.888 155.097 27.408 155.817 26.112C156.537 24.8 157.537 23.784 158.817 23.064C160.113 22.328 161.577 21.96 163.209 21.96C165.209 21.96 166.921 22.488 168.345 23.544C169.769 24.6 170.721 26.04 171.201 27.864H166.689C166.353 27.16 165.873 26.624 165.249 26.256C164.641 25.888 163.945 25.704 163.161 25.704C161.897 25.704 160.873 26.144 160.089 27.024C159.305 27.904 158.913 29.08 158.913 30.552C158.913 32.024 159.305 33.2 160.089 34.08C160.873 34.96 161.897 35.4 163.161 35.4C163.945 35.4 164.641 35.216 165.249 34.848C165.873 34.48 166.353 33.944 166.689 33.24H171.201C170.721 35.064 169.769 36.504 168.345 37.56C166.921 38.6 165.209 39.12 163.209 39.12C161.577 39.12 160.113 38.76 158.817 38.04C157.537 37.304 156.537 36.288 155.817 34.992C155.097 33.696 154.737 32.216 154.737 30.552ZM189.531 22.152L183.555 39H178.419L172.443 22.152H176.811L180.987 34.872L185.187 22.152H189.531Z" fill="white"/>
<path d="M238.531 31C238.531 39.0273 232.027 45.5312 224 45.5312C215.973 45.5312 209.469 39.0273 209.469 31C209.469 22.9727 215.973 16.4688 224 16.4688C232.027 16.4688 238.531 22.9727 238.531 31ZM221.422 24.2031V31H217.268C216.641 31 216.324 31.7617 216.77 32.2012L223.502 38.8984C223.777 39.1738 224.217 39.1738 224.492 38.8984L231.225 32.2012C231.67 31.7559 231.354 31 230.727 31H226.578V24.2031C226.578 23.8164 226.262 23.5 225.875 23.5H222.125C221.738 23.5 221.422 23.8164 221.422 24.2031Z" fill="white"/>
</svg>
