<svg width="32" height="33" viewBox="0 0 32 33" fill="none" xmlns="http://www.w3.org/2000/svg">
<path d="M16 0.515625C7.45325 0.515625 0.5 7.68616 0.5 16.5C0.5 25.3138 7.45325 32.4844 16 32.4844C24.5467 32.4844 31.5 25.3138 31.5 16.5C31.5 7.68616 24.5467 0.515625 16 0.515625ZM26.2481 7.88687C28.0921 10.2101 29.2087 13.1693 29.2378 16.3918C28.8013 16.2966 24.4242 15.381 20.0189 15.9523C19.6594 15.0474 19.3201 14.2512 18.8554 13.2702C23.7504 11.2092 25.969 8.27623 26.2481 7.88687ZM24.7763 6.30803C24.5382 6.65781 22.5452 9.42021 17.8375 11.2399C15.668 7.12935 13.2634 3.75253 12.8975 3.24721C17.096 2.20352 21.5204 3.32907 24.7763 6.30803ZM10.3713 4.16496C10.7204 4.65861 13.0862 8.03962 15.2799 12.061C9.08694 13.757 3.63238 13.7326 3.04025 13.7245C3.89875 9.48782 6.66737 5.96662 10.3713 4.16496ZM2.76062 16.5208C2.76062 16.3812 2.76331 16.2423 2.76737 16.1036C3.34662 16.1159 9.76237 16.2011 16.374 14.1606C16.753 14.9255 17.1151 15.702 17.4474 16.4776C12.6599 17.8682 8.31025 21.8612 6.16419 25.6497C4.04962 23.2292 2.76062 20.0275 2.76062 16.5208ZM7.87356 27.2918C9.2565 24.3764 13.0097 20.613 18.3472 18.7352C20.206 23.7164 20.9747 27.891 21.1716 29.0889C16.9146 30.9588 11.7956 30.4458 7.87356 27.2918ZM23.3973 27.8389C23.2616 27.0084 22.5569 23.0116 20.8253 18.1044C24.9741 17.4195 28.6191 18.5406 29.072 18.688C28.4819 22.4869 26.3674 25.7678 23.3973 27.8389Z" fill="black"/>
</svg>
