<svg width="110" height="110" viewBox="0 0 110 110" fill="none" xmlns="http://www.w3.org/2000/svg">
<path d="M27.7292 36.8958C15.2167 49.4083 15.2167 69.7583 27.7292 82.2708C34.0084 88.5499 42.2126 91.6666 50.4167 91.6666C58.6209 91.6666 66.8251 88.5499 73.1042 82.2708C89.0542 66.3208 91.6667 18.3333 91.6667 18.3333C91.6667 18.3333 43.6792 20.9458 27.7292 36.8958ZM66.6417 75.8083C62.2876 80.1166 56.5584 82.4999 50.4167 82.4999C46.3376 82.4999 42.4876 81.3541 39.0501 79.3832C43.2667 66.1832 51.0584 54.5874 61.4167 45.8333C49.3626 52.0666 39.2334 61.6916 32.2209 73.3332C25.4376 64.3499 26.0334 51.5624 34.2376 43.3583C42.2126 35.3833 64.35 30.4791 81.5834 28.4166C79.5209 45.6499 74.6167 67.7874 66.6417 75.8083Z" fill="#6C7983"/>
</svg>
