<svg width="49" height="49" viewBox="0 0 49 49" fill="none" xmlns="http://www.w3.org/2000/svg">
<path d="M48.0717 19.1352C48.4449 18.8385 49 19.116 49 19.585V39.1562C49 41.6924 46.9424 43.75 44.4062 43.75H4.59375C2.05762 43.75 0 41.6924 0 39.1562V19.5945C0 19.116 0.545508 18.848 0.92832 19.1447C3.07207 20.81 5.91445 22.925 15.6762 30.0166C17.6955 31.4904 21.1025 34.5912 24.5 34.5721C27.9166 34.6008 31.3906 31.433 33.3334 30.0166C43.0951 22.925 45.9279 20.8004 48.0717 19.1352ZM24.5 31.5C26.7203 31.5383 29.9168 28.7055 31.5246 27.5379C44.2244 18.3217 45.191 17.5178 48.1195 15.2209C48.6746 14.7902 49 14.1203 49 13.4121V11.5938C49 9.05762 46.9424 7 44.4062 7H4.59375C2.05762 7 0 9.05762 0 11.5938V13.4121C0 14.1203 0.325391 14.7807 0.880469 15.2209C3.80898 17.5082 4.77559 18.3217 17.4754 27.5379C19.0832 28.7055 22.2797 31.5383 24.5 31.5Z" fill="#6C7983"/>
</svg>
