<svg width="150" height="150" viewBox="0 0 150 150" fill="none" xmlns="http://www.w3.org/2000/svg">
<path d="M54.1668 137.5C65.6668 137.5 75.0002 128.167 75.0002 116.667V95.8335H54.1668C42.6668 95.8335 33.3335 105.167 33.3335 116.667C33.3335 128.167 42.6668 137.5 54.1668 137.5Z" fill="#0ACF83"/>
<path d="M33.3335 75.0001C33.3335 63.5001 42.6668 54.1667 54.1668 54.1667H75.0002V95.8334H54.1668C42.6668 95.8334 33.3335 86.5001 33.3335 75.0001Z" fill="#A259FF"/>
<path d="M33.3335 33.3333C33.3335 21.8333 42.6668 12.5 54.1668 12.5H75.0002V54.1667H54.1668C42.6668 54.1667 33.3335 44.8333 33.3335 33.3333Z" fill="#F24E1E"/>
<path d="M75 12.5H95.8333C107.333 12.5 116.667 21.8333 116.667 33.3333C116.667 44.8333 107.333 54.1667 95.8333 54.1667H75V12.5Z" fill="#FF7262"/>
<path d="M116.667 75.0001C116.667 86.5001 107.333 95.8334 95.8333 95.8334C84.3333 95.8334 75 86.5001 75 75.0001C75 63.5001 84.3333 54.1667 95.8333 54.1667C107.333 54.1667 116.667 63.5001 116.667 75.0001Z" fill="#1ABCFE"/>
</svg>
