<svg width="150" height="150" viewBox="0 0 150 150" fill="none" xmlns="http://www.w3.org/2000/svg">
<path d="M87.0222 60.2279L76.3775 70.1329L66.4998 50.2096L71.6109 38.7521C72.9046 36.4553 75.0155 36.4509 76.3092 38.7521L87.0222 60.2279Z" fill="#FFA000"/>
<path d="M76.3776 70.1326L36.5989 107.138L66.4999 50.2092L76.3776 70.1326Z" fill="#F57F17"/>
<path d="M98.6649 45.0882C100.567 43.2603 102.533 43.8838 103.034 46.4736L113.388 106.642L79.0644 127.213C77.8632 127.876 74.6824 128.164 74.6824 128.164C74.6824 128.164 71.7791 127.817 70.6726 127.203L36.5977 107.136L98.6649 45.0882Z" fill="#FFCA28"/>
<path d="M66.5003 50.2093L36.5994 107.138L49.9177 23.9353C50.4082 21.3434 51.8835 21.0938 53.1999 23.3816L66.5003 50.2093Z" fill="#FFA000"/>
</svg>
