<svg width="150" height="150" viewBox="0 0 150 150" fill="none" xmlns="http://www.w3.org/2000/svg">
<path d="M76.5625 141.128L21.875 108.812V44.3125L76.5625 11.9968L131.25 44.3125V108.812L76.5625 141.128ZM28.125 105.25L76.5625 133.872L125 105.25V47.875L76.5625 19.2531L28.125 47.875V105.25Z" fill="#FF4081"/>
<path d="M76.5625 28.125C82.6031 28.125 87.5 23.2281 87.5 17.1875C87.5 11.1469 82.6031 6.25 76.5625 6.25C70.5219 6.25 65.625 11.1469 65.625 17.1875C65.625 23.2281 70.5219 28.125 76.5625 28.125Z" fill="#FF4081"/>
<path d="M76.5625 146.875C82.6031 146.875 87.5 141.978 87.5 135.938C87.5 129.897 82.6031 125 76.5625 125C70.5219 125 65.625 129.897 65.625 135.938C65.625 141.978 70.5219 146.875 76.5625 146.875Z" fill="#FF4081"/>
<path d="M26.5625 115.625C32.6031 115.625 37.5 110.728 37.5 104.687C37.5 98.6469 32.6031 93.75 26.5625 93.75C20.5219 93.75 15.625 98.6469 15.625 104.687C15.625 110.728 20.5219 115.625 26.5625 115.625Z" fill="#FF4081"/>
<path d="M126.563 115.625C132.603 115.625 137.5 110.728 137.5 104.687C137.5 98.6469 132.603 93.75 126.563 93.75C120.522 93.75 115.625 98.6469 115.625 104.687C115.625 110.728 120.522 115.625 126.563 115.625Z" fill="#FF4081"/>
<path d="M26.5625 59.375C32.6031 59.375 37.5 54.4781 37.5 48.4375C37.5 42.3969 32.6031 37.5 26.5625 37.5C20.5219 37.5 15.625 42.3969 15.625 48.4375C15.625 54.4781 20.5219 59.375 26.5625 59.375Z" fill="#FF4081"/>
<path d="M126.563 59.375C132.603 59.375 137.5 54.4781 137.5 48.4375C137.5 42.3969 132.603 37.5 126.563 37.5C120.522 37.5 115.625 42.3969 115.625 48.4375C115.625 54.4781 120.522 59.375 126.563 59.375Z" fill="#FF4081"/>
<path d="M133.5 109.375H19.625L76.5625 9.30615L133.5 109.375ZM30.375 103.125H122.75L76.5625 21.9437L30.375 103.125Z" fill="#FF4081"/>
</svg>
