<svg width="54" height="48" viewBox="0 0 54 48" fill="none" xmlns="http://www.w3.org/2000/svg">
<g clip-path="url(#clip0_63:5)">
<path d="M26.2846 13.8994L8.99994 28.1353V43.5C8.99994 43.8978 9.15798 44.2794 9.43928 44.5607C9.72058 44.842 10.1021 45 10.4999 45L21.0056 44.9728C21.4021 44.9708 21.7817 44.8119 22.0614 44.5308C22.3411 44.2497 22.4981 43.8694 22.4981 43.4728V34.5C22.4981 34.1022 22.6561 33.7207 22.9374 33.4394C23.2187 33.158 23.6002 33 23.9981 33H29.9981C30.3959 33 30.7774 33.158 31.0587 33.4394C31.34 33.7207 31.4981 34.1022 31.4981 34.5V43.4663C31.4974 43.6636 31.5358 43.8592 31.6109 44.0417C31.686 44.2243 31.7964 44.3902 31.9357 44.53C32.0751 44.6697 32.2407 44.7806 32.423 44.8563C32.6052 44.932 32.8007 44.9709 32.9981 44.9709L43.4999 45C43.8978 45 44.2793 44.842 44.5606 44.5607C44.8419 44.2794 44.9999 43.8978 44.9999 43.5V28.125L27.719 13.8994C27.5158 13.7356 27.2628 13.6463 27.0018 13.6463C26.7409 13.6463 26.4878 13.7356 26.2846 13.8994ZM53.5874 23.5753L45.7499 17.115V4.1297C45.7499 3.83133 45.6314 3.54518 45.4204 3.3342C45.2095 3.12323 44.9233 3.0047 44.6249 3.0047H39.3749C39.0766 3.0047 38.7904 3.12323 38.5794 3.3342C38.3685 3.54518 38.2499 3.83133 38.2499 4.1297V10.9369L29.8565 4.03126C29.051 3.36843 28.0403 3.00602 26.9971 3.00602C25.954 3.00602 24.9432 3.36843 24.1378 4.03126L0.406815 23.5753C0.292897 23.6695 0.198648 23.7852 0.129453 23.9158C0.0602582 24.0463 0.0174734 24.1893 0.00354343 24.3364C-0.0103865 24.4836 0.0048114 24.632 0.0482688 24.7733C0.0917262 24.9145 0.162591 25.0458 0.256815 25.1597L2.64744 28.0659C2.74141 28.1802 2.85699 28.2748 2.98756 28.3443C3.11814 28.4139 3.26115 28.457 3.4084 28.4712C3.55565 28.4854 3.70426 28.4704 3.84571 28.4271C3.98717 28.3838 4.11869 28.313 4.23275 28.2188L26.2846 10.0556C26.4878 9.89188 26.7409 9.80258 27.0018 9.80258C27.2628 9.80258 27.5158 9.89188 27.719 10.0556L49.7718 28.2188C49.8857 28.313 50.017 28.3839 50.1582 28.4273C50.2995 28.4708 50.4479 28.486 50.5951 28.472C50.7422 28.4581 50.8852 28.4153 51.0158 28.3461C51.1464 28.2769 51.262 28.1827 51.3562 28.0688L53.7468 25.1625C53.8409 25.048 53.9115 24.916 53.9544 24.7741C53.9974 24.6322 54.0119 24.4833 53.9971 24.3358C53.9823 24.1883 53.9384 24.0452 53.8681 23.9147C53.7978 23.7842 53.7024 23.6688 53.5874 23.5753Z" fill="#6C7983"/>
</g>
<defs>
<clipPath id="clip0_63:5">
<rect width="54" height="48" fill="white"/>
</clipPath>
</defs>
</svg>
