<svg width="759" height="755" viewBox="0 0 759 755" fill="none" xmlns="http://www.w3.org/2000/svg">
<rect x="155" width="151" height="151" rx="20" fill="#7E94FD"/>
<rect x="4" y="151" width="151" height="151" rx="20" fill="#7E94FD"/>
<rect x="306" y="151" width="151" height="151" rx="20" fill="#8AD8FA"/>
<rect x="155" y="302" width="151" height="151" rx="20" fill="white"/>
<rect x="155" y="604" width="151" height="151" rx="20" fill="white"/>
<rect x="306" y="453" width="151" height="151" rx="20" fill="#7E94FD"/>
<rect y="452" width="151" height="151" rx="20" fill="#7E94FD"/>
<rect x="457" y="302" width="151" height="151" rx="20" fill="#7EFDDE"/>
<rect x="608" y="151" width="151" height="151" rx="20" fill="#8AD8FA"/>
<rect x="457" width="151" height="151" rx="20" fill="#7EFDDE"/>
<circle cx="230.5" cy="226.5" r="75.5" fill="#7EFDDE"/>
<circle cx="532.5" cy="226.5" r="75.5" fill="#7E94FD"/>
<circle cx="381.5" cy="377.5" r="75.5" fill="#7E94FD"/>
<circle cx="230.5" cy="527.5" r="75.5" fill="#7EFDDE"/>
</svg>
