<svg width="68" height="68" viewBox="0 0 68 68" fill="none" xmlns="http://www.w3.org/2000/svg">
<path d="M60.5571 47.26C59.0909 50.5165 58.3843 51.9722 56.4984 54.8462C53.8581 58.8625 50.134 63.8775 45.5334 63.9094C41.4374 63.9465 40.3802 61.2372 34.8181 61.285C29.2612 61.3115 28.1031 63.9625 24.0018 63.92C19.3959 63.8775 15.8737 59.3619 13.2334 55.3509C5.849 44.1044 5.06806 30.9187 9.6315 23.9062C12.8615 18.9337 17.9668 16.0119 22.764 16.0119C27.6515 16.0119 30.7221 18.6947 34.7596 18.6947C38.6802 18.6947 41.0656 16.0065 46.7181 16.0065C50.9893 16.0065 55.5049 18.3334 58.7349 22.3497C48.1737 28.1403 49.8896 43.2225 60.5571 47.26ZM42.4256 11.5175C44.4815 8.87717 46.0434 5.15311 45.4749 1.35999C42.1227 1.58842 38.2021 3.72936 35.9124 6.50248C33.8352 9.03123 32.114 12.7819 32.7834 16.4103C36.4437 16.5272 40.2315 14.3437 42.4256 11.5175Z" fill="black"/>
</svg>
