<svg width="150" height="150" viewBox="0 0 150 150" fill="none" xmlns="http://www.w3.org/2000/svg">
<path d="M80.8593 75.65C81.178 76.0594 81.3124 76.65 81.2218 77.1969L80.3593 80.9719C80.2687 81.5625 79.8593 82.0188 79.3624 82.2906L75.8687 83.9281C75.3687 84.2 74.7343 84.2 74.2343 83.9281L70.7405 82.2906C70.2405 82.0188 69.8343 81.5625 69.7437 80.9719L68.8812 77.1969C68.7905 76.65 68.928 76.0594 69.2437 75.65L71.6937 72.6031C72.0093 72.1469 72.5562 71.875 73.1437 71.875H76.9562C77.5468 71.875 78.0905 72.1469 78.4093 72.6031L80.8593 75.65Z" fill="#0277BD"/>
<path d="M79.1001 47.9063L79.2501 49.0782C79.6689 52.3188 79.9689 55.5938 80.2689 58.8344C80.3876 60.1251 80.5095 61.3876 80.597 62.6782C80.6564 63.6688 81.7657 64.1782 82.5751 63.6094C83.5939 62.8594 84.6439 62.1094 85.722 61.3876C88.4189 59.5563 91.0845 57.7251 93.8407 55.9532L94.8595 55.3219C90.5751 51.4188 85.122 48.7469 79.1001 47.9063ZM79.1001 47.9063L79.2501 49.0782C79.6689 52.3188 79.9689 55.5938 80.2689 58.8344C80.3876 60.1251 80.5095 61.3876 80.597 62.6782C80.6564 63.6688 81.7657 64.1782 82.5751 63.6094C83.5939 62.8594 84.6439 62.1094 85.722 61.3876C88.4189 59.5563 91.0845 57.7251 93.8407 55.9532L94.8595 55.3219C90.5751 51.4188 85.122 48.7469 79.1001 47.9063ZM79.1001 47.9063L79.2501 49.0782C79.6689 52.3188 79.9689 55.5938 80.2689 58.8344C80.3876 60.1251 80.5095 61.3876 80.597 62.6782C80.6564 63.6688 81.7657 64.1782 82.5751 63.6094C83.5939 62.8594 84.6439 62.1094 85.722 61.3876C88.4189 59.5563 91.0845 57.7251 93.8407 55.9532L94.8595 55.3219C90.5751 51.4188 85.122 48.7469 79.1001 47.9063ZM79.1001 47.9063L79.2501 49.0782C79.6689 52.3188 79.9689 55.5938 80.2689 58.8344C80.3876 60.1251 80.5095 61.3876 80.597 62.6782C80.6564 63.6688 81.7657 64.1782 82.5751 63.6094C83.5939 62.8594 84.6439 62.1094 85.722 61.3876C88.4189 59.5563 91.0845 57.7251 93.8407 55.9532L94.8595 55.3219C90.5751 51.4188 85.122 48.7469 79.1001 47.9063ZM79.1001 47.9063L79.2501 49.0782C79.6689 52.3188 79.9689 55.5938 80.2689 58.8344C80.3876 60.1251 80.5095 61.3876 80.597 62.6782C80.6564 63.6688 81.7657 64.1782 82.5751 63.6094C83.5939 62.8594 84.6439 62.1094 85.722 61.3876C88.4189 59.5563 91.0845 57.7251 93.8407 55.9532L94.8595 55.3219C90.5751 51.4188 85.122 48.7469 79.1001 47.9063ZM100.372 61.9844L99.5626 62.8563C97.3157 65.2594 95.0095 67.5688 92.7001 69.8813C91.2314 71.3813 89.6439 72.8219 88.1157 74.2938C90.1532 74.8032 92.1907 75.3438 94.2282 75.9438C97.3751 76.8438 100.491 77.7157 103.606 78.7344L104.716 79.0938C104.747 78.6126 104.747 78.1032 104.747 77.5938C104.747 71.8626 103.159 66.5188 100.372 61.9844ZM100.372 61.9844L99.5626 62.8563C97.3157 65.2594 95.0095 67.5688 92.7001 69.8813C91.2314 71.3813 89.6439 72.8219 88.1157 74.2938C90.1532 74.8032 92.1907 75.3438 94.2282 75.9438C97.3751 76.8438 100.491 77.7157 103.606 78.7344L104.716 79.0938C104.747 78.6126 104.747 78.1032 104.747 77.5938C104.747 71.8626 103.159 66.5188 100.372 61.9844ZM79.1001 47.9063L79.2501 49.0782C79.6689 52.3188 79.9689 55.5938 80.2689 58.8344C80.3876 60.1251 80.5095 61.3876 80.597 62.6782C80.6564 63.6688 81.7657 64.1782 82.5751 63.6094C83.5939 62.8594 84.6439 62.1094 85.722 61.3876C88.4189 59.5563 91.0845 57.7251 93.8407 55.9532L94.8595 55.3219C90.5751 51.4188 85.122 48.7469 79.1001 47.9063ZM79.1001 47.9063L79.2501 49.0782C79.6689 52.3188 79.9689 55.5938 80.2689 58.8344C80.3876 60.1251 80.5095 61.3876 80.597 62.6782C80.6564 63.6688 81.7657 64.1782 82.5751 63.6094C83.5939 62.8594 84.6439 62.1094 85.722 61.3876C88.4189 59.5563 91.0845 57.7251 93.8407 55.9532L94.8595 55.3219C90.5751 51.4188 85.122 48.7469 79.1001 47.9063ZM101.959 87.5626C98.6939 87.3532 95.4564 87.0532 92.1907 86.7532C90.7814 86.6344 89.4032 86.4844 87.997 86.3313C87.097 86.2126 86.3782 87.1126 86.7095 87.9813C87.2189 89.3313 87.697 90.6844 88.1782 92.0657C89.2282 95.1282 90.3064 98.2188 91.2939 101.341L91.622 102.422C96.8345 98.8501 100.881 93.6876 103.006 87.6219L101.959 87.5626ZM100.372 61.9844L99.5626 62.8563C97.3157 65.2594 95.0095 67.5688 92.7001 69.8813C91.2314 71.3813 89.6439 72.8219 88.1157 74.2938C90.1532 74.8032 92.1907 75.3438 94.2282 75.9438C97.3751 76.8438 100.491 77.7157 103.606 78.7344L104.716 79.0938C104.747 78.6126 104.747 78.1032 104.747 77.5938C104.747 71.8626 103.159 66.5188 100.372 61.9844ZM100.372 61.9844L99.5626 62.8563C97.3157 65.2594 95.0095 67.5688 92.7001 69.8813C91.2314 71.3813 89.6439 72.8219 88.1157 74.2938C90.1532 74.8032 92.1907 75.3438 94.2282 75.9438C97.3751 76.8438 100.491 77.7157 103.606 78.7344L104.716 79.0938C104.747 78.6126 104.747 78.1032 104.747 77.5938C104.747 71.8626 103.159 66.5188 100.372 61.9844ZM101.959 87.5626C98.6939 87.3532 95.4564 87.0532 92.1907 86.7532C90.7814 86.6344 89.4032 86.4844 87.997 86.3313C87.097 86.2126 86.3782 87.1126 86.7095 87.9813C87.2189 89.3313 87.697 90.6844 88.1782 92.0657C89.2282 95.1282 90.3064 98.2188 91.2939 101.341L91.622 102.422C96.8345 98.8501 100.881 93.6876 103.006 87.6219L101.959 87.5626ZM79.1001 47.9063L79.2501 49.0782C79.6689 52.3188 79.9689 55.5938 80.2689 58.8344C80.3876 60.1251 80.5095 61.3876 80.597 62.6782C80.6564 63.6688 81.7657 64.1782 82.5751 63.6094C83.5939 62.8594 84.6439 62.1094 85.722 61.3876C88.4189 59.5563 91.0845 57.7251 93.8407 55.9532L94.8595 55.3219C90.5751 51.4188 85.122 48.7469 79.1001 47.9063ZM79.1001 47.9063L79.2501 49.0782C79.6689 52.3188 79.9689 55.5938 80.2689 58.8344C80.3876 60.1251 80.5095 61.3876 80.597 62.6782C80.6564 63.6688 81.7657 64.1782 82.5751 63.6094C83.5939 62.8594 84.6439 62.1094 85.722 61.3876C88.4189 59.5563 91.0845 57.7251 93.8407 55.9532L94.8595 55.3219C90.5751 51.4188 85.122 48.7469 79.1001 47.9063ZM101.959 87.5626C98.6939 87.3532 95.4564 87.0532 92.1907 86.7532C90.7814 86.6344 89.4032 86.4844 87.997 86.3313C87.097 86.2126 86.3782 87.1126 86.7095 87.9813C87.2189 89.3313 87.697 90.6844 88.1782 92.0657C89.2282 95.1282 90.3064 98.2188 91.2939 101.341L91.622 102.422C96.8345 98.8501 100.881 93.6876 103.006 87.6219L101.959 87.5626ZM100.372 61.9844L99.5626 62.8563C97.3157 65.2594 95.0095 67.5688 92.7001 69.8813C91.2314 71.3813 89.6439 72.8219 88.1157 74.2938C90.1532 74.8032 92.1907 75.3438 94.2282 75.9438C97.3751 76.8438 100.491 77.7157 103.606 78.7344L104.716 79.0938C104.747 78.6126 104.747 78.1032 104.747 77.5938C104.747 71.8626 103.159 66.5188 100.372 61.9844ZM100.372 61.9844L99.5626 62.8563C97.3157 65.2594 95.0095 67.5688 92.7001 69.8813C91.2314 71.3813 89.6439 72.8219 88.1157 74.2938C90.1532 74.8032 92.1907 75.3438 94.2282 75.9438C97.3751 76.8438 100.491 77.7157 103.606 78.7344L104.716 79.0938C104.747 78.6126 104.747 78.1032 104.747 77.5938C104.747 71.8626 103.159 66.5188 100.372 61.9844ZM101.959 87.5626C98.6939 87.3532 95.4564 87.0532 92.1907 86.7532C90.7814 86.6344 89.4032 86.4844 87.997 86.3313C87.097 86.2126 86.3782 87.1126 86.7095 87.9813C87.2189 89.3313 87.697 90.6844 88.1782 92.0657C89.2282 95.1282 90.3064 98.2188 91.2939 101.341L91.622 102.422C96.8345 98.8501 100.881 93.6876 103.006 87.6219L101.959 87.5626ZM79.1001 47.9063L79.2501 49.0782C79.6689 52.3188 79.9689 55.5938 80.2689 58.8344C80.3876 60.1251 80.5095 61.3876 80.597 62.6782C80.6564 63.6688 81.7657 64.1782 82.5751 63.6094C83.5939 62.8594 84.6439 62.1094 85.722 61.3876C88.4189 59.5563 91.0845 57.7251 93.8407 55.9532L94.8595 55.3219C90.5751 51.4188 85.122 48.7469 79.1001 47.9063ZM83.1439 105.063C81.4064 102.3 79.7876 99.4501 78.1689 96.6282C77.4501 95.3969 76.7595 94.1657 76.1001 92.9063C75.622 92.0344 74.3907 92.0344 73.9126 92.9063C73.222 94.1969 72.5032 95.4594 71.7564 96.6876C70.1095 99.5094 68.4595 102.331 66.722 105.094L65.972 106.294C68.7595 107.166 71.7251 107.616 74.7814 107.616C77.9282 107.616 80.9845 107.134 83.8314 106.203L83.1439 105.063ZM79.1001 47.9063L79.2501 49.0782C79.6689 52.3188 79.9689 55.5938 80.2689 58.8344C80.3876 60.1251 80.5095 61.3876 80.597 62.6782C80.6564 63.6688 81.7657 64.1782 82.5751 63.6094C83.5939 62.8594 84.6439 62.1094 85.722 61.3876C88.4189 59.5563 91.0845 57.7251 93.8407 55.9532L94.8595 55.3219C90.5751 51.4188 85.122 48.7469 79.1001 47.9063ZM101.959 87.5626C98.6939 87.3532 95.4564 87.0532 92.1907 86.7532C90.7814 86.6344 89.4032 86.4844 87.997 86.3313C87.097 86.2126 86.3782 87.1126 86.7095 87.9813C87.2189 89.3313 87.697 90.6844 88.1782 92.0657C89.2282 95.1282 90.3064 98.2188 91.2939 101.341L91.622 102.422C96.8345 98.8501 100.881 93.6876 103.006 87.6219L101.959 87.5626ZM100.372 61.9844L99.5626 62.8563C97.3157 65.2594 95.0095 67.5688 92.7001 69.8813C91.2314 71.3813 89.6439 72.8219 88.1157 74.2938C90.1532 74.8032 92.1907 75.3438 94.2282 75.9438C97.3751 76.8438 100.491 77.7157 103.606 78.7344L104.716 79.0938C104.747 78.6126 104.747 78.1032 104.747 77.5938C104.747 71.8626 103.159 66.5188 100.372 61.9844ZM100.372 61.9844L99.5626 62.8563C97.3157 65.2594 95.0095 67.5688 92.7001 69.8813C91.2314 71.3813 89.6439 72.8219 88.1157 74.2938C90.1532 74.8032 92.1907 75.3438 94.2282 75.9438C97.3751 76.8438 100.491 77.7157 103.606 78.7344L104.716 79.0938C104.747 78.6126 104.747 78.1032 104.747 77.5938C104.747 71.8626 103.159 66.5188 100.372 61.9844ZM101.959 87.5626C98.6939 87.3532 95.4564 87.0532 92.1907 86.7532C90.7814 86.6344 89.4032 86.4844 87.997 86.3313C87.097 86.2126 86.3782 87.1126 86.7095 87.9813C87.2189 89.3313 87.697 90.6844 88.1782 92.0657C89.2282 95.1282 90.3064 98.2188 91.2939 101.341L91.622 102.422C96.8345 98.8501 100.881 93.6876 103.006 87.6219L101.959 87.5626ZM79.1001 47.9063L79.2501 49.0782C79.6689 52.3188 79.9689 55.5938 80.2689 58.8344C80.3876 60.1251 80.5095 61.3876 80.597 62.6782C80.6564 63.6688 81.7657 64.1782 82.5751 63.6094C83.5939 62.8594 84.6439 62.1094 85.722 61.3876C88.4189 59.5563 91.0845 57.7251 93.8407 55.9532L94.8595 55.3219C90.5751 51.4188 85.122 48.7469 79.1001 47.9063ZM83.1439 105.063C81.4064 102.3 79.7876 99.4501 78.1689 96.6282C77.4501 95.3969 76.7595 94.1657 76.1001 92.9063C75.622 92.0344 74.3907 92.0344 73.9126 92.9063C73.222 94.1969 72.5032 95.4594 71.7564 96.6876C70.1095 99.5094 68.4595 102.331 66.722 105.094L65.972 106.294C68.7595 107.166 71.7251 107.616 74.7814 107.616C77.9282 107.616 80.9845 107.134 83.8314 106.203L83.1439 105.063ZM62.1095 85.9126C60.7001 86.0938 59.322 86.3032 57.9157 86.4532C54.6501 86.8438 51.4439 87.2344 48.1782 87.5344L46.5595 87.6844C48.747 93.8094 52.8814 99.0313 58.1845 102.575L58.6032 101.313C59.622 98.1907 60.7001 95.1282 61.8095 92.0376C62.3189 90.5376 62.8595 89.0657 63.4282 87.5657C63.7876 86.6907 63.0376 85.7626 62.1095 85.9126ZM83.1439 105.063C81.4064 102.3 79.7876 99.4501 78.1689 96.6282C77.4501 95.3969 76.7595 94.1657 76.1001 92.9063C75.622 92.0344 74.3907 92.0344 73.9126 92.9063C73.222 94.1969 72.5032 95.4594 71.7564 96.6876C70.1095 99.5094 68.4595 102.331 66.722 105.094L65.972 106.294C68.7595 107.166 71.7251 107.616 74.7814 107.616C77.9282 107.616 80.9845 107.134 83.8314 106.203L83.1439 105.063ZM79.1001 47.9063L79.2501 49.0782C79.6689 52.3188 79.9689 55.5938 80.2689 58.8344C80.3876 60.1251 80.5095 61.3876 80.597 62.6782C80.6564 63.6688 81.7657 64.1782 82.5751 63.6094C83.5939 62.8594 84.6439 62.1094 85.722 61.3876C88.4189 59.5563 91.0845 57.7251 93.8407 55.9532L94.8595 55.3219C90.5751 51.4188 85.122 48.7469 79.1001 47.9063ZM101.959 87.5626C98.6939 87.3532 95.4564 87.0532 92.1907 86.7532C90.7814 86.6344 89.4032 86.4844 87.997 86.3313C87.097 86.2126 86.3782 87.1126 86.7095 87.9813C87.2189 89.3313 87.697 90.6844 88.1782 92.0657C89.2282 95.1282 90.3064 98.2188 91.2939 101.341L91.622 102.422C96.8345 98.8501 100.881 93.6876 103.006 87.6219L101.959 87.5626ZM100.372 61.9844L99.5626 62.8563C97.3157 65.2594 95.0095 67.5688 92.7001 69.8813C91.2314 71.3813 89.6439 72.8219 88.1157 74.2938C90.1532 74.8032 92.1907 75.3438 94.2282 75.9438C97.3751 76.8438 100.491 77.7157 103.606 78.7344L104.716 79.0938C104.747 78.6126 104.747 78.1032 104.747 77.5938C104.747 71.8626 103.159 66.5188 100.372 61.9844ZM100.372 61.9844L99.5626 62.8563C97.3157 65.2594 95.0095 67.5688 92.7001 69.8813C91.2314 71.3813 89.6439 72.8219 88.1157 74.2938C90.1532 74.8032 92.1907 75.3438 94.2282 75.9438C97.3751 76.8438 100.491 77.7157 103.606 78.7344L104.716 79.0938C104.747 78.6126 104.747 78.1032 104.747 77.5938C104.747 71.8626 103.159 66.5188 100.372 61.9844ZM101.959 87.5626C98.6939 87.3532 95.4564 87.0532 92.1907 86.7532C90.7814 86.6344 89.4032 86.4844 87.997 86.3313C87.097 86.2126 86.3782 87.1126 86.7095 87.9813C87.2189 89.3313 87.697 90.6844 88.1782 92.0657C89.2282 95.1282 90.3064 98.2188 91.2939 101.341L91.622 102.422C96.8345 98.8501 100.881 93.6876 103.006 87.6219L101.959 87.5626ZM79.1001 47.9063L79.2501 49.0782C79.6689 52.3188 79.9689 55.5938 80.2689 58.8344C80.3876 60.1251 80.5095 61.3876 80.597 62.6782C80.6564 63.6688 81.7657 64.1782 82.5751 63.6094C83.5939 62.8594 84.6439 62.1094 85.722 61.3876C88.4189 59.5563 91.0845 57.7251 93.8407 55.9532L94.8595 55.3219C90.5751 51.4188 85.122 48.7469 79.1001 47.9063ZM83.1439 105.063C81.4064 102.3 79.7876 99.4501 78.1689 96.6282C77.4501 95.3969 76.7595 94.1657 76.1001 92.9063C75.622 92.0344 74.3907 92.0344 73.9126 92.9063C73.222 94.1969 72.5032 95.4594 71.7564 96.6876C70.1095 99.5094 68.4595 102.331 66.722 105.094L65.972 106.294C68.7595 107.166 71.7251 107.616 74.7814 107.616C77.9282 107.616 80.9845 107.134 83.8314 106.203L83.1439 105.063ZM62.1095 85.9126C60.7001 86.0938 59.322 86.3032 57.9157 86.4532C54.6501 86.8438 51.4439 87.2344 48.1782 87.5344L46.5595 87.6844C48.747 93.8094 52.8814 99.0313 58.1845 102.575L58.6032 101.313C59.622 98.1907 60.7001 95.1282 61.8095 92.0376C62.3189 90.5376 62.8595 89.0657 63.4282 87.5657C63.7876 86.6907 63.0376 85.7626 62.1095 85.9126ZM62.1095 85.9126C60.7001 86.0938 59.322 86.3032 57.9157 86.4532C54.6501 86.8438 51.4439 87.2344 48.1782 87.5344L46.5595 87.6844C48.747 93.8094 52.8814 99.0313 58.1845 102.575L58.6032 101.313C59.622 98.1907 60.7001 95.1282 61.8095 92.0376C62.3189 90.5376 62.8595 89.0657 63.4282 87.5657C63.7876 86.6907 63.0376 85.7626 62.1095 85.9126ZM83.1439 105.063C81.4064 102.3 79.7876 99.4501 78.1689 96.6282C77.4501 95.3969 76.7595 94.1657 76.1001 92.9063C75.622 92.0344 74.3907 92.0344 73.9126 92.9063C73.222 94.1969 72.5032 95.4594 71.7564 96.6876C70.1095 99.5094 68.4595 102.331 66.722 105.094L65.972 106.294C68.7595 107.166 71.7251 107.616 74.7814 107.616C77.9282 107.616 80.9845 107.134 83.8314 106.203L83.1439 105.063ZM79.1001 47.9063L79.2501 49.0782C79.6689 52.3188 79.9689 55.5938 80.2689 58.8344C80.3876 60.1251 80.5095 61.3876 80.597 62.6782C80.6564 63.6688 81.7657 64.1782 82.5751 63.6094C83.5939 62.8594 84.6439 62.1094 85.722 61.3876C88.4189 59.5563 91.0845 57.7251 93.8407 55.9532L94.8595 55.3219C90.5751 51.4188 85.122 48.7469 79.1001 47.9063ZM101.959 87.5626C98.6939 87.3532 95.4564 87.0532 92.1907 86.7532C90.7814 86.6344 89.4032 86.4844 87.997 86.3313C87.097 86.2126 86.3782 87.1126 86.7095 87.9813C87.2189 89.3313 87.697 90.6844 88.1782 92.0657C89.2282 95.1282 90.3064 98.2188 91.2939 101.341L91.622 102.422C96.8345 98.8501 100.881 93.6876 103.006 87.6219L101.959 87.5626ZM100.372 61.9844L99.5626 62.8563C97.3157 65.2594 95.0095 67.5688 92.7001 69.8813C91.2314 71.3813 89.6439 72.8219 88.1157 74.2938C90.1532 74.8032 92.1907 75.3438 94.2282 75.9438C97.3751 76.8438 100.491 77.7157 103.606 78.7344L104.716 79.0938C104.747 78.6126 104.747 78.1032 104.747 77.5938C104.747 71.8626 103.159 66.5188 100.372 61.9844ZM100.372 61.9844L99.5626 62.8563C97.3157 65.2594 95.0095 67.5688 92.7001 69.8813C91.2314 71.3813 89.6439 72.8219 88.1157 74.2938C90.1532 74.8032 92.1907 75.3438 94.2282 75.9438C97.3751 76.8438 100.491 77.7157 103.606 78.7344L104.716 79.0938C104.747 78.6126 104.747 78.1032 104.747 77.5938C104.747 71.8626 103.159 66.5188 100.372 61.9844ZM101.959 87.5626C98.6939 87.3532 95.4564 87.0532 92.1907 86.7532C90.7814 86.6344 89.4032 86.4844 87.997 86.3313C87.097 86.2126 86.3782 87.1126 86.7095 87.9813C87.2189 89.3313 87.697 90.6844 88.1782 92.0657C89.2282 95.1282 90.3064 98.2188 91.2939 101.341L91.622 102.422C96.8345 98.8501 100.881 93.6876 103.006 87.6219L101.959 87.5626ZM79.1001 47.9063L79.2501 49.0782C79.6689 52.3188 79.9689 55.5938 80.2689 58.8344C80.3876 60.1251 80.5095 61.3876 80.597 62.6782C80.6564 63.6688 81.7657 64.1782 82.5751 63.6094C83.5939 62.8594 84.6439 62.1094 85.722 61.3876C88.4189 59.5563 91.0845 57.7251 93.8407 55.9532L94.8595 55.3219C90.5751 51.4188 85.122 48.7469 79.1001 47.9063ZM83.1439 105.063C81.4064 102.3 79.7876 99.4501 78.1689 96.6282C77.4501 95.3969 76.7595 94.1657 76.1001 92.9063C75.622 92.0344 74.3907 92.0344 73.9126 92.9063C73.222 94.1969 72.5032 95.4594 71.7564 96.6876C70.1095 99.5094 68.4595 102.331 66.722 105.094L65.972 106.294C68.7595 107.166 71.7251 107.616 74.7814 107.616C77.9282 107.616 80.9845 107.134 83.8314 106.203L83.1439 105.063ZM62.1095 85.9126C60.7001 86.0938 59.322 86.3032 57.9157 86.4532C54.6501 86.8438 51.4439 87.2344 48.1782 87.5344L46.5595 87.6844C48.747 93.8094 52.8814 99.0313 58.1845 102.575L58.6032 101.313C59.622 98.1907 60.7001 95.1282 61.8095 92.0376C62.3189 90.5376 62.8595 89.0657 63.4282 87.5657C63.7876 86.6907 63.0376 85.7626 62.1095 85.9126ZM60.4314 72.2219C59.4126 71.2907 58.4251 70.3594 57.4345 69.3688C55.097 67.0563 52.7907 64.7751 50.5126 62.4032L49.5532 61.4126C46.5564 66.0657 44.8189 71.6188 44.8189 77.5938C44.8189 78.1657 44.8501 78.7032 44.8501 79.2438L46.2595 78.7626C49.347 77.6532 52.4626 76.6907 55.547 75.6719C57.0157 75.1907 58.4845 74.7719 59.9501 74.3219C60.8814 74.0532 61.1501 72.8813 60.4314 72.2219ZM62.1095 85.9126C60.7001 86.0938 59.322 86.3032 57.9157 86.4532C54.6501 86.8438 51.4439 87.2344 48.1782 87.5344L46.5595 87.6844C48.747 93.8094 52.8814 99.0313 58.1845 102.575L58.6032 101.313C59.622 98.1907 60.7001 95.1282 61.8095 92.0376C62.3189 90.5376 62.8595 89.0657 63.4282 87.5657C63.7876 86.6907 63.0376 85.7626 62.1095 85.9126ZM83.1439 105.063C81.4064 102.3 79.7876 99.4501 78.1689 96.6282C77.4501 95.3969 76.7595 94.1657 76.1001 92.9063C75.622 92.0344 74.3907 92.0344 73.9126 92.9063C73.222 94.1969 72.5032 95.4594 71.7564 96.6876C70.1095 99.5094 68.4595 102.331 66.722 105.094L65.972 106.294C68.7595 107.166 71.7251 107.616 74.7814 107.616C77.9282 107.616 80.9845 107.134 83.8314 106.203L83.1439 105.063ZM79.1001 47.9063L79.2501 49.0782C79.6689 52.3188 79.9689 55.5938 80.2689 58.8344C80.3876 60.1251 80.5095 61.3876 80.597 62.6782C80.6564 63.6688 81.7657 64.1782 82.5751 63.6094C83.5939 62.8594 84.6439 62.1094 85.722 61.3876C88.4189 59.5563 91.0845 57.7251 93.8407 55.9532L94.8595 55.3219C90.5751 51.4188 85.122 48.7469 79.1001 47.9063ZM101.959 87.5626C98.6939 87.3532 95.4564 87.0532 92.1907 86.7532C90.7814 86.6344 89.4032 86.4844 87.997 86.3313C87.097 86.2126 86.3782 87.1126 86.7095 87.9813C87.2189 89.3313 87.697 90.6844 88.1782 92.0657C89.2282 95.1282 90.3064 98.2188 91.2939 101.341L91.622 102.422C96.8345 98.8501 100.881 93.6876 103.006 87.6219L101.959 87.5626ZM100.372 61.9844L99.5626 62.8563C97.3157 65.2594 95.0095 67.5688 92.7001 69.8813C91.2314 71.3813 89.6439 72.8219 88.1157 74.2938C90.1532 74.8032 92.1907 75.3438 94.2282 75.9438C97.3751 76.8438 100.491 77.7157 103.606 78.7344L104.716 79.0938C104.747 78.6126 104.747 78.1032 104.747 77.5938C104.747 71.8626 103.159 66.5188 100.372 61.9844ZM100.372 61.9844L99.5626 62.8563C97.3157 65.2594 95.0095 67.5688 92.7001 69.8813C91.2314 71.3813 89.6439 72.8219 88.1157 74.2938C90.1532 74.8032 92.1907 75.3438 94.2282 75.9438C97.3751 76.8438 100.491 77.7157 103.606 78.7344L104.716 79.0938C104.747 78.6126 104.747 78.1032 104.747 77.5938C104.747 71.8626 103.159 66.5188 100.372 61.9844ZM92.1907 86.7532C90.7814 86.6344 89.4032 86.4844 87.997 86.3313C87.097 86.2126 86.3782 87.1126 86.7095 87.9813C87.2189 89.3313 87.697 90.6844 88.1782 92.0657C89.2282 95.1282 90.3064 98.2188 91.2939 101.341L91.622 102.422C96.8345 98.8501 100.881 93.6876 103.006 87.6219L101.956 87.5626C98.6939 87.3532 95.4595 87.0532 92.1907 86.7532ZM94.8595 55.3219C90.5751 51.4188 85.122 48.7469 79.1001 47.9063L79.2501 49.0782C79.6689 52.3188 79.9689 55.5938 80.2689 58.8344C80.3876 60.1251 80.5095 61.3876 80.597 62.6782C80.6564 63.6688 81.7657 64.1782 82.5751 63.6094C83.5939 62.8594 84.6439 62.1094 85.722 61.3876C88.4189 59.5563 91.0845 57.7251 93.8407 55.9532L94.8595 55.3219ZM78.1689 96.6282C77.4501 95.3969 76.7595 94.1657 76.1001 92.9063C75.622 92.0344 74.3907 92.0344 73.9126 92.9063C73.222 94.1969 72.5032 95.4594 71.7564 96.6876C70.1095 99.5094 68.4595 102.331 66.722 105.094L65.972 106.294C68.7595 107.166 71.7251 107.616 74.7814 107.616C77.9282 107.616 80.9845 107.134 83.8314 106.203L83.1407 105.063C81.4064 102.303 79.7876 99.4501 78.1689 96.6282ZM62.1095 85.9126C60.7001 86.0938 59.322 86.3032 57.9157 86.4532C54.6501 86.8438 51.4439 87.2344 48.1782 87.5344L46.5595 87.6844C48.747 93.8094 52.8814 99.0313 58.1845 102.575L58.6032 101.313C59.622 98.1907 60.7001 95.1282 61.8095 92.0376C62.3189 90.5376 62.8595 89.0657 63.4282 87.5657C63.7876 86.6907 63.0376 85.7626 62.1095 85.9126ZM59.9532 74.3219C60.8814 74.0532 61.1532 72.8813 60.4314 72.2219C59.4126 71.2907 58.4251 70.3594 57.4345 69.3688C55.097 67.0563 52.7907 64.7751 50.5126 62.4032L49.5532 61.4126C46.5564 66.0657 44.8189 71.6188 44.8189 77.5938C44.8189 78.1657 44.8501 78.7032 44.8501 79.2438L46.2595 78.7626C49.347 77.6532 52.4626 76.6907 55.547 75.6719C57.0157 75.1938 58.4845 74.7751 59.9532 74.3219ZM139.894 88.0438L128.447 37.6688C127.938 35.4188 126.441 33.5563 124.372 32.5344L78.0501 10.1407C75.9814 9.1188 73.5845 9.1188 71.5189 10.1407L25.197 32.5344C23.1282 33.5563 21.6314 35.4157 21.122 37.6688L9.67511 88.0438C9.16574 90.2938 9.70636 92.6376 11.1126 94.4094L43.172 134.816C44.6095 136.616 46.797 137.669 49.0751 137.669H100.491C102.769 137.669 104.956 136.619 106.394 134.816L138.453 94.4094C139.863 92.6344 140.403 90.2938 139.894 88.0438ZM123.894 90.1438C122.994 90.3532 122.097 90.1438 121.378 89.6938C119.909 88.7032 118.353 88.1626 116.794 87.7126C116.016 87.5032 115.206 87.3219 114.428 87.2032C113.65 86.9626 112.75 87.2032 111.85 87.6219C110.95 88.1313 110.141 88.0438 109.303 87.9813H109.213C106.634 96.5376 100.972 103.772 93.4814 108.366V108.397C93.722 109.178 93.9907 109.928 93.7501 110.95C93.5407 111.941 93.5095 112.841 93.9314 113.563C94.2595 114.284 94.622 115.034 95.0095 115.725C95.8189 117.134 96.7189 118.547 98.0345 119.719C99.3532 120.95 99.4439 122.991 98.2439 124.341C97.0157 125.663 94.9782 125.75 93.6282 124.55C92.9376 123.919 92.5782 123.078 92.5782 122.209C92.5189 120.438 92.0689 118.878 91.5282 117.316C91.2595 116.566 90.9595 115.816 90.6001 115.066C90.3314 114.284 89.6126 113.744 88.7407 113.234C87.9032 112.784 87.4814 112.153 87.0626 111.463C83.2282 112.875 79.0939 113.625 74.7782 113.625C70.5251 113.625 66.4501 112.875 62.672 111.525C62.3126 112.184 61.8939 112.784 61.0532 113.238C60.1845 113.719 59.4657 114.288 59.197 115.069C58.8376 115.791 58.5064 116.541 58.2376 117.291C57.697 118.853 57.2189 120.413 57.1876 122.184C57.1282 123.984 55.6001 125.397 53.8032 125.338C52.0064 125.278 50.597 123.778 50.6564 121.975C50.6876 121.044 51.1064 120.234 51.7345 119.663C53.0532 118.463 53.9532 117.081 54.7907 115.7C55.1814 114.978 55.5407 114.259 55.8689 113.509C56.2876 112.819 56.2595 111.888 56.0782 110.897C55.8689 109.966 56.0782 109.216 56.3189 108.525C48.797 103.991 43.0439 96.7876 40.4095 88.2313C39.7189 88.2907 39.0626 88.2907 38.2814 87.9001C37.3532 87.5094 36.4845 87.2688 35.7032 87.5407C34.8939 87.6907 34.1157 87.9001 33.3376 88.1407C31.7782 88.6501 30.2501 89.2219 28.8126 90.2407C27.3439 91.2907 25.3064 90.9313 24.2595 89.4594C23.2407 87.9876 23.5689 85.9469 25.0376 84.9251C25.7876 84.3844 26.7157 84.2032 27.5532 84.3532C29.2626 84.7126 30.9095 84.5938 32.5282 84.3844C33.3376 84.2938 34.147 84.1438 34.9251 83.9344C35.7345 83.8751 36.4532 83.2751 37.1126 82.5251C37.6814 81.8657 38.3407 81.5938 39.0001 81.3532C38.8814 80.1219 38.8189 78.8626 38.8189 77.6001C38.8189 69.9157 41.2157 62.8001 45.322 56.9469C44.7814 56.4063 44.272 55.8657 44.0626 54.9063C43.7939 53.9469 43.4345 53.1063 42.7439 52.6563C42.1157 52.1157 41.4845 51.6344 40.8251 51.1844C39.447 50.2844 38.0376 49.4438 36.3595 48.9344C34.622 48.4532 33.6032 46.6219 34.1126 44.9126C34.622 43.1719 36.4189 42.1813 38.1564 42.6626C39.0251 42.9313 39.7439 43.5344 40.1345 44.2844C40.9439 45.8469 42.0532 47.0751 43.222 48.2157C43.7907 48.7876 44.422 49.3251 45.0501 49.8063C45.6189 50.4063 46.5189 50.5876 47.5064 50.6469C48.5564 50.6782 49.2126 51.1282 49.9032 51.5782L49.9345 51.6094C55.5689 46.1469 62.997 42.5438 71.2376 41.7626C71.3282 40.9532 71.3876 40.1407 72.0157 39.3313C72.6157 38.5219 73.0345 37.7094 72.9439 36.9001C72.9751 36.0907 72.9439 35.2782 72.8845 34.4376C72.7032 32.8157 72.4657 31.1938 71.7751 29.5751C71.0564 27.9251 71.8345 26.0032 73.4845 25.2813C75.1314 24.5907 77.0501 25.3407 77.7689 26.9938C78.1282 27.8657 78.097 28.7938 77.7689 29.5751C77.0782 31.1969 76.8407 32.8157 76.6595 34.4376C76.6001 35.2782 76.5689 36.0876 76.6001 36.9001C76.5095 37.7094 76.9282 38.5219 77.5282 39.3313C78.1564 40.1407 78.2189 40.9532 78.3064 41.7626C86.7564 42.5719 94.3657 46.3251 100.059 52.0282C100.75 51.5782 101.406 51.0969 102.456 51.0688C103.444 51.0094 104.344 50.8282 104.913 50.2282C105.541 49.7188 106.141 49.1782 106.741 48.6063C107.878 47.4657 108.988 46.2344 109.797 44.6751C110.606 43.0532 112.584 42.4251 114.172 43.2657C115.791 44.0751 116.419 46.0563 115.581 47.6501C115.163 48.4907 114.444 49.0626 113.603 49.3001C111.925 49.7813 110.516 50.6501 109.169 51.5501C108.509 52.0313 107.85 52.5094 107.25 53.0501C106.559 53.5001 106.2 54.3407 105.931 55.3001C105.722 56.3219 105.153 56.8907 104.584 57.4907C108.478 63.2251 110.728 70.1594 110.728 77.6032C110.728 78.7438 110.669 79.8844 110.578 80.9969H110.609C111.388 81.2376 112.169 81.4469 112.856 82.2563C113.547 82.9782 114.266 83.5157 115.075 83.5782C115.884 83.7594 116.663 83.8782 117.472 83.9688C119.119 84.1188 120.738 84.1782 122.475 83.7876C124.244 83.3969 125.981 84.5094 126.369 86.2782C126.769 88.0126 125.659 89.7532 123.894 90.1438ZM99.5626 62.8563C97.3157 65.2594 95.0095 67.5688 92.7001 69.8813C91.2314 71.3813 89.6439 72.8219 88.1157 74.2938C90.1532 74.8032 92.1907 75.3438 94.2282 75.9438C97.3751 76.8438 100.491 77.7157 103.606 78.7344L104.716 79.0938C104.747 78.6126 104.747 78.1032 104.747 77.5938C104.747 71.8594 103.159 66.5157 100.372 61.9844L99.5626 62.8563ZM92.1907 86.7532C90.7814 86.6344 89.4032 86.4844 87.997 86.3313C87.097 86.2126 86.3782 87.1126 86.7095 87.9813C87.2189 89.3313 87.697 90.6844 88.1782 92.0657C89.2282 95.1282 90.3064 98.2188 91.2939 101.341L91.622 102.422C96.8345 98.8501 100.881 93.6876 103.006 87.6219L101.956 87.5626C98.6939 87.3532 95.4595 87.0532 92.1907 86.7532ZM94.8595 55.3219C90.5751 51.4188 85.122 48.7469 79.1001 47.9063L79.2501 49.0782C79.6689 52.3188 79.9689 55.5938 80.2689 58.8344C80.3876 60.1251 80.5095 61.3876 80.597 62.6782C80.6564 63.6688 81.7657 64.1782 82.5751 63.6094C83.5939 62.8594 84.6439 62.1094 85.722 61.3876C88.4189 59.5563 91.0845 57.7251 93.8407 55.9532L94.8595 55.3219ZM78.1689 96.6282C77.4501 95.3969 76.7595 94.1657 76.1001 92.9063C75.622 92.0344 74.3907 92.0344 73.9126 92.9063C73.222 94.1969 72.5032 95.4594 71.7564 96.6876C70.1095 99.5094 68.4595 102.331 66.722 105.094L65.972 106.294C68.7595 107.166 71.7251 107.616 74.7814 107.616C77.9282 107.616 80.9845 107.134 83.8314 106.203L83.1407 105.063C81.4064 102.303 79.7876 99.4501 78.1689 96.6282ZM69.3001 58.8344C69.6001 55.5907 69.9001 52.3188 70.3189 49.0782L70.4689 47.9063C64.6876 48.7157 59.4439 51.2094 55.247 54.8719L56.1751 55.4438C58.9626 57.1844 61.6595 59.0157 64.3564 60.8469C65.9157 61.8376 67.3814 62.9469 68.8501 64.0001C68.972 62.2844 69.122 60.5438 69.3001 58.8344ZM62.1095 85.9126C60.7001 86.0938 59.322 86.3032 57.9157 86.4532C54.6501 86.8438 51.4439 87.2344 48.1782 87.5344L46.5595 87.6844C48.747 93.8094 52.8814 99.0313 58.1845 102.575L58.6032 101.313C59.622 98.1907 60.7001 95.1282 61.8095 92.0376C62.3189 90.5376 62.8595 89.0657 63.4282 87.5657C63.7876 86.6907 63.0376 85.7626 62.1095 85.9126ZM59.9532 74.3219C60.8814 74.0532 61.1532 72.8813 60.4314 72.2219C59.4126 71.2907 58.4251 70.3594 57.4345 69.3688C55.097 67.0563 52.7907 64.7751 50.5126 62.4032L49.5532 61.4126C46.5564 66.0657 44.8189 71.6188 44.8189 77.5938C44.8189 78.1657 44.8501 78.7032 44.8501 79.2438L46.2595 78.7626C49.347 77.6532 52.4626 76.6907 55.547 75.6719C57.0157 75.1938 58.4845 74.7751 59.9532 74.3219ZM60.4314 72.2219C59.4126 71.2907 58.4251 70.3594 57.4345 69.3688C55.097 67.0563 52.7907 64.7751 50.5126 62.4032L49.5532 61.4126C46.5564 66.0657 44.8189 71.6188 44.8189 77.5938C44.8189 78.1657 44.8501 78.7032 44.8501 79.2438L46.2595 78.7626C49.347 77.6532 52.4626 76.6907 55.547 75.6719C57.0157 75.1907 58.4845 74.7719 59.9501 74.3219C60.8814 74.0532 61.1501 72.8813 60.4314 72.2219ZM62.1095 85.9126C60.7001 86.0938 59.322 86.3032 57.9157 86.4532C54.6501 86.8438 51.4439 87.2344 48.1782 87.5344L46.5595 87.6844C48.747 93.8094 52.8814 99.0313 58.1845 102.575L58.6032 101.313C59.622 98.1907 60.7001 95.1282 61.8095 92.0376C62.3189 90.5376 62.8595 89.0657 63.4282 87.5657C63.7876 86.6907 63.0376 85.7626 62.1095 85.9126ZM83.1439 105.063C81.4064 102.3 79.7876 99.4501 78.1689 96.6282C77.4501 95.3969 76.7595 94.1657 76.1001 92.9063C75.622 92.0344 74.3907 92.0344 73.9126 92.9063C73.222 94.1969 72.5032 95.4594 71.7564 96.6876C70.1095 99.5094 68.4595 102.331 66.722 105.094L65.972 106.294C68.7595 107.166 71.7251 107.616 74.7814 107.616C77.9282 107.616 80.9845 107.134 83.8314 106.203L83.1439 105.063ZM79.1001 47.9063L79.2501 49.0782C79.6689 52.3188 79.9689 55.5938 80.2689 58.8344C80.3876 60.1251 80.5095 61.3876 80.597 62.6782C80.6564 63.6688 81.7657 64.1782 82.5751 63.6094C83.5939 62.8594 84.6439 62.1094 85.722 61.3876C88.4189 59.5563 91.0845 57.7251 93.8407 55.9532L94.8595 55.3219C90.5751 51.4188 85.122 48.7469 79.1001 47.9063ZM101.959 87.5626C98.6939 87.3532 95.4564 87.0532 92.1907 86.7532C90.7814 86.6344 89.4032 86.4844 87.997 86.3313C87.097 86.2126 86.3782 87.1126 86.7095 87.9813C87.2189 89.3313 87.697 90.6844 88.1782 92.0657C89.2282 95.1282 90.3064 98.2188 91.2939 101.341L91.622 102.422C96.8345 98.8501 100.881 93.6876 103.006 87.6219L101.959 87.5626ZM100.372 61.9844L99.5626 62.8563C97.3157 65.2594 95.0095 67.5688 92.7001 69.8813C91.2314 71.3813 89.6439 72.8219 88.1157 74.2938C90.1532 74.8032 92.1907 75.3438 94.2282 75.9438C97.3751 76.8438 100.491 77.7157 103.606 78.7344L104.716 79.0938C104.747 78.6126 104.747 78.1032 104.747 77.5938C104.747 71.8626 103.159 66.5188 100.372 61.9844ZM100.372 61.9844L99.5626 62.8563C97.3157 65.2594 95.0095 67.5688 92.7001 69.8813C91.2314 71.3813 89.6439 72.8219 88.1157 74.2938C90.1532 74.8032 92.1907 75.3438 94.2282 75.9438C97.3751 76.8438 100.491 77.7157 103.606 78.7344L104.716 79.0938C104.747 78.6126 104.747 78.1032 104.747 77.5938C104.747 71.8626 103.159 66.5188 100.372 61.9844ZM101.959 87.5626C98.6939 87.3532 95.4564 87.0532 92.1907 86.7532C90.7814 86.6344 89.4032 86.4844 87.997 86.3313C87.097 86.2126 86.3782 87.1126 86.7095 87.9813C87.2189 89.3313 87.697 90.6844 88.1782 92.0657C89.2282 95.1282 90.3064 98.2188 91.2939 101.341L91.622 102.422C96.8345 98.8501 100.881 93.6876 103.006 87.6219L101.959 87.5626ZM79.1001 47.9063L79.2501 49.0782C79.6689 52.3188 79.9689 55.5938 80.2689 58.8344C80.3876 60.1251 80.5095 61.3876 80.597 62.6782C80.6564 63.6688 81.7657 64.1782 82.5751 63.6094C83.5939 62.8594 84.6439 62.1094 85.722 61.3876C88.4189 59.5563 91.0845 57.7251 93.8407 55.9532L94.8595 55.3219C90.5751 51.4188 85.122 48.7469 79.1001 47.9063ZM83.1439 105.063C81.4064 102.3 79.7876 99.4501 78.1689 96.6282C77.4501 95.3969 76.7595 94.1657 76.1001 92.9063C75.622 92.0344 74.3907 92.0344 73.9126 92.9063C73.222 94.1969 72.5032 95.4594 71.7564 96.6876C70.1095 99.5094 68.4595 102.331 66.722 105.094L65.972 106.294C68.7595 107.166 71.7251 107.616 74.7814 107.616C77.9282 107.616 80.9845 107.134 83.8314 106.203L83.1439 105.063ZM62.1095 85.9126C60.7001 86.0938 59.322 86.3032 57.9157 86.4532C54.6501 86.8438 51.4439 87.2344 48.1782 87.5344L46.5595 87.6844C48.747 93.8094 52.8814 99.0313 58.1845 102.575L58.6032 101.313C59.622 98.1907 60.7001 95.1282 61.8095 92.0376C62.3189 90.5376 62.8595 89.0657 63.4282 87.5657C63.7876 86.6907 63.0376 85.7626 62.1095 85.9126ZM60.4314 72.2219C59.4126 71.2907 58.4251 70.3594 57.4345 69.3688C55.097 67.0563 52.7907 64.7751 50.5126 62.4032L49.5532 61.4126C46.5564 66.0657 44.8189 71.6188 44.8189 77.5938C44.8189 78.1657 44.8501 78.7032 44.8501 79.2438L46.2595 78.7626C49.347 77.6532 52.4626 76.6907 55.547 75.6719C57.0157 75.1907 58.4845 74.7719 59.9501 74.3219C60.8814 74.0532 61.1501 72.8813 60.4314 72.2219ZM62.1095 85.9126C60.7001 86.0938 59.322 86.3032 57.9157 86.4532C54.6501 86.8438 51.4439 87.2344 48.1782 87.5344L46.5595 87.6844C48.747 93.8094 52.8814 99.0313 58.1845 102.575L58.6032 101.313C59.622 98.1907 60.7001 95.1282 61.8095 92.0376C62.3189 90.5376 62.8595 89.0657 63.4282 87.5657C63.7876 86.6907 63.0376 85.7626 62.1095 85.9126ZM83.1439 105.063C81.4064 102.3 79.7876 99.4501 78.1689 96.6282C77.4501 95.3969 76.7595 94.1657 76.1001 92.9063C75.622 92.0344 74.3907 92.0344 73.9126 92.9063C73.222 94.1969 72.5032 95.4594 71.7564 96.6876C70.1095 99.5094 68.4595 102.331 66.722 105.094L65.972 106.294C68.7595 107.166 71.7251 107.616 74.7814 107.616C77.9282 107.616 80.9845 107.134 83.8314 106.203L83.1439 105.063ZM79.1001 47.9063L79.2501 49.0782C79.6689 52.3188 79.9689 55.5938 80.2689 58.8344C80.3876 60.1251 80.5095 61.3876 80.597 62.6782C80.6564 63.6688 81.7657 64.1782 82.5751 63.6094C83.5939 62.8594 84.6439 62.1094 85.722 61.3876C88.4189 59.5563 91.0845 57.7251 93.8407 55.9532L94.8595 55.3219C90.5751 51.4188 85.122 48.7469 79.1001 47.9063ZM101.959 87.5626C98.6939 87.3532 95.4564 87.0532 92.1907 86.7532C90.7814 86.6344 89.4032 86.4844 87.997 86.3313C87.097 86.2126 86.3782 87.1126 86.7095 87.9813C87.2189 89.3313 87.697 90.6844 88.1782 92.0657C89.2282 95.1282 90.3064 98.2188 91.2939 101.341L91.622 102.422C96.8345 98.8501 100.881 93.6876 103.006 87.6219L101.959 87.5626ZM100.372 61.9844L99.5626 62.8563C97.3157 65.2594 95.0095 67.5688 92.7001 69.8813C91.2314 71.3813 89.6439 72.8219 88.1157 74.2938C90.1532 74.8032 92.1907 75.3438 94.2282 75.9438C97.3751 76.8438 100.491 77.7157 103.606 78.7344L104.716 79.0938C104.747 78.6126 104.747 78.1032 104.747 77.5938C104.747 71.8626 103.159 66.5188 100.372 61.9844ZM100.372 61.9844L99.5626 62.8563C97.3157 65.2594 95.0095 67.5688 92.7001 69.8813C91.2314 71.3813 89.6439 72.8219 88.1157 74.2938C90.1532 74.8032 92.1907 75.3438 94.2282 75.9438C97.3751 76.8438 100.491 77.7157 103.606 78.7344L104.716 79.0938C104.747 78.6126 104.747 78.1032 104.747 77.5938C104.747 71.8626 103.159 66.5188 100.372 61.9844ZM101.959 87.5626C98.6939 87.3532 95.4564 87.0532 92.1907 86.7532C90.7814 86.6344 89.4032 86.4844 87.997 86.3313C87.097 86.2126 86.3782 87.1126 86.7095 87.9813C87.2189 89.3313 87.697 90.6844 88.1782 92.0657C89.2282 95.1282 90.3064 98.2188 91.2939 101.341L91.622 102.422C96.8345 98.8501 100.881 93.6876 103.006 87.6219L101.959 87.5626ZM79.1001 47.9063L79.2501 49.0782C79.6689 52.3188 79.9689 55.5938 80.2689 58.8344C80.3876 60.1251 80.5095 61.3876 80.597 62.6782C80.6564 63.6688 81.7657 64.1782 82.5751 63.6094C83.5939 62.8594 84.6439 62.1094 85.722 61.3876C88.4189 59.5563 91.0845 57.7251 93.8407 55.9532L94.8595 55.3219C90.5751 51.4188 85.122 48.7469 79.1001 47.9063ZM83.1439 105.063C81.4064 102.3 79.7876 99.4501 78.1689 96.6282C77.4501 95.3969 76.7595 94.1657 76.1001 92.9063C75.622 92.0344 74.3907 92.0344 73.9126 92.9063C73.222 94.1969 72.5032 95.4594 71.7564 96.6876C70.1095 99.5094 68.4595 102.331 66.722 105.094L65.972 106.294C68.7595 107.166 71.7251 107.616 74.7814 107.616C77.9282 107.616 80.9845 107.134 83.8314 106.203L83.1439 105.063ZM62.1095 85.9126C60.7001 86.0938 59.322 86.3032 57.9157 86.4532C54.6501 86.8438 51.4439 87.2344 48.1782 87.5344L46.5595 87.6844C48.747 93.8094 52.8814 99.0313 58.1845 102.575L58.6032 101.313C59.622 98.1907 60.7001 95.1282 61.8095 92.0376C62.3189 90.5376 62.8595 89.0657 63.4282 87.5657C63.7876 86.6907 63.0376 85.7626 62.1095 85.9126ZM83.1439 105.063C81.4064 102.3 79.7876 99.4501 78.1689 96.6282C77.4501 95.3969 76.7595 94.1657 76.1001 92.9063C75.622 92.0344 74.3907 92.0344 73.9126 92.9063C73.222 94.1969 72.5032 95.4594 71.7564 96.6876C70.1095 99.5094 68.4595 102.331 66.722 105.094L65.972 106.294C68.7595 107.166 71.7251 107.616 74.7814 107.616C77.9282 107.616 80.9845 107.134 83.8314 106.203L83.1439 105.063ZM79.1001 47.9063L79.2501 49.0782C79.6689 52.3188 79.9689 55.5938 80.2689 58.8344C80.3876 60.1251 80.5095 61.3876 80.597 62.6782C80.6564 63.6688 81.7657 64.1782 82.5751 63.6094C83.5939 62.8594 84.6439 62.1094 85.722 61.3876C88.4189 59.5563 91.0845 57.7251 93.8407 55.9532L94.8595 55.3219C90.5751 51.4188 85.122 48.7469 79.1001 47.9063ZM101.959 87.5626C98.6939 87.3532 95.4564 87.0532 92.1907 86.7532C90.7814 86.6344 89.4032 86.4844 87.997 86.3313C87.097 86.2126 86.3782 87.1126 86.7095 87.9813C87.2189 89.3313 87.697 90.6844 88.1782 92.0657C89.2282 95.1282 90.3064 98.2188 91.2939 101.341L91.622 102.422C96.8345 98.8501 100.881 93.6876 103.006 87.6219L101.959 87.5626ZM100.372 61.9844L99.5626 62.8563C97.3157 65.2594 95.0095 67.5688 92.7001 69.8813C91.2314 71.3813 89.6439 72.8219 88.1157 74.2938C90.1532 74.8032 92.1907 75.3438 94.2282 75.9438C97.3751 76.8438 100.491 77.7157 103.606 78.7344L104.716 79.0938C104.747 78.6126 104.747 78.1032 104.747 77.5938C104.747 71.8626 103.159 66.5188 100.372 61.9844ZM100.372 61.9844L99.5626 62.8563C97.3157 65.2594 95.0095 67.5688 92.7001 69.8813C91.2314 71.3813 89.6439 72.8219 88.1157 74.2938C90.1532 74.8032 92.1907 75.3438 94.2282 75.9438C97.3751 76.8438 100.491 77.7157 103.606 78.7344L104.716 79.0938C104.747 78.6126 104.747 78.1032 104.747 77.5938C104.747 71.8626 103.159 66.5188 100.372 61.9844ZM101.959 87.5626C98.6939 87.3532 95.4564 87.0532 92.1907 86.7532C90.7814 86.6344 89.4032 86.4844 87.997 86.3313C87.097 86.2126 86.3782 87.1126 86.7095 87.9813C87.2189 89.3313 87.697 90.6844 88.1782 92.0657C89.2282 95.1282 90.3064 98.2188 91.2939 101.341L91.622 102.422C96.8345 98.8501 100.881 93.6876 103.006 87.6219L101.959 87.5626ZM79.1001 47.9063L79.2501 49.0782C79.6689 52.3188 79.9689 55.5938 80.2689 58.8344C80.3876 60.1251 80.5095 61.3876 80.597 62.6782C80.6564 63.6688 81.7657 64.1782 82.5751 63.6094C83.5939 62.8594 84.6439 62.1094 85.722 61.3876C88.4189 59.5563 91.0845 57.7251 93.8407 55.9532L94.8595 55.3219C90.5751 51.4188 85.122 48.7469 79.1001 47.9063ZM83.1439 105.063C81.4064 102.3 79.7876 99.4501 78.1689 96.6282C77.4501 95.3969 76.7595 94.1657 76.1001 92.9063C75.622 92.0344 74.3907 92.0344 73.9126 92.9063C73.222 94.1969 72.5032 95.4594 71.7564 96.6876C70.1095 99.5094 68.4595 102.331 66.722 105.094L65.972 106.294C68.7595 107.166 71.7251 107.616 74.7814 107.616C77.9282 107.616 80.9845 107.134 83.8314 106.203L83.1439 105.063ZM83.1439 105.063C81.4064 102.3 79.7876 99.4501 78.1689 96.6282C77.4501 95.3969 76.7595 94.1657 76.1001 92.9063C75.622 92.0344 74.3907 92.0344 73.9126 92.9063C73.222 94.1969 72.5032 95.4594 71.7564 96.6876C70.1095 99.5094 68.4595 102.331 66.722 105.094L65.972 106.294C68.7595 107.166 71.7251 107.616 74.7814 107.616C77.9282 107.616 80.9845 107.134 83.8314 106.203L83.1439 105.063ZM79.1001 47.9063L79.2501 49.0782C79.6689 52.3188 79.9689 55.5938 80.2689 58.8344C80.3876 60.1251 80.5095 61.3876 80.597 62.6782C80.6564 63.6688 81.7657 64.1782 82.5751 63.6094C83.5939 62.8594 84.6439 62.1094 85.722 61.3876C88.4189 59.5563 91.0845 57.7251 93.8407 55.9532L94.8595 55.3219C90.5751 51.4188 85.122 48.7469 79.1001 47.9063ZM101.959 87.5626C98.6939 87.3532 95.4564 87.0532 92.1907 86.7532C90.7814 86.6344 89.4032 86.4844 87.997 86.3313C87.097 86.2126 86.3782 87.1126 86.7095 87.9813C87.2189 89.3313 87.697 90.6844 88.1782 92.0657C89.2282 95.1282 90.3064 98.2188 91.2939 101.341L91.622 102.422C96.8345 98.8501 100.881 93.6876 103.006 87.6219L101.959 87.5626ZM100.372 61.9844L99.5626 62.8563C97.3157 65.2594 95.0095 67.5688 92.7001 69.8813C91.2314 71.3813 89.6439 72.8219 88.1157 74.2938C90.1532 74.8032 92.1907 75.3438 94.2282 75.9438C97.3751 76.8438 100.491 77.7157 103.606 78.7344L104.716 79.0938C104.747 78.6126 104.747 78.1032 104.747 77.5938C104.747 71.8626 103.159 66.5188 100.372 61.9844ZM100.372 61.9844L99.5626 62.8563C97.3157 65.2594 95.0095 67.5688 92.7001 69.8813C91.2314 71.3813 89.6439 72.8219 88.1157 74.2938C90.1532 74.8032 92.1907 75.3438 94.2282 75.9438C97.3751 76.8438 100.491 77.7157 103.606 78.7344L104.716 79.0938C104.747 78.6126 104.747 78.1032 104.747 77.5938C104.747 71.8626 103.159 66.5188 100.372 61.9844ZM101.959 87.5626C98.6939 87.3532 95.4564 87.0532 92.1907 86.7532C90.7814 86.6344 89.4032 86.4844 87.997 86.3313C87.097 86.2126 86.3782 87.1126 86.7095 87.9813C87.2189 89.3313 87.697 90.6844 88.1782 92.0657C89.2282 95.1282 90.3064 98.2188 91.2939 101.341L91.622 102.422C96.8345 98.8501 100.881 93.6876 103.006 87.6219L101.959 87.5626ZM79.1001 47.9063L79.2501 49.0782C79.6689 52.3188 79.9689 55.5938 80.2689 58.8344C80.3876 60.1251 80.5095 61.3876 80.597 62.6782C80.6564 63.6688 81.7657 64.1782 82.5751 63.6094C83.5939 62.8594 84.6439 62.1094 85.722 61.3876C88.4189 59.5563 91.0845 57.7251 93.8407 55.9532L94.8595 55.3219C90.5751 51.4188 85.122 48.7469 79.1001 47.9063ZM83.1439 105.063C81.4064 102.3 79.7876 99.4501 78.1689 96.6282C77.4501 95.3969 76.7595 94.1657 76.1001 92.9063C75.622 92.0344 74.3907 92.0344 73.9126 92.9063C73.222 94.1969 72.5032 95.4594 71.7564 96.6876C70.1095 99.5094 68.4595 102.331 66.722 105.094L65.972 106.294C68.7595 107.166 71.7251 107.616 74.7814 107.616C77.9282 107.616 80.9845 107.134 83.8314 106.203L83.1439 105.063ZM79.1001 47.9063L79.2501 49.0782C79.6689 52.3188 79.9689 55.5938 80.2689 58.8344C80.3876 60.1251 80.5095 61.3876 80.597 62.6782C80.6564 63.6688 81.7657 64.1782 82.5751 63.6094C83.5939 62.8594 84.6439 62.1094 85.722 61.3876C88.4189 59.5563 91.0845 57.7251 93.8407 55.9532L94.8595 55.3219C90.5751 51.4188 85.122 48.7469 79.1001 47.9063ZM101.959 87.5626C98.6939 87.3532 95.4564 87.0532 92.1907 86.7532C90.7814 86.6344 89.4032 86.4844 87.997 86.3313C87.097 86.2126 86.3782 87.1126 86.7095 87.9813C87.2189 89.3313 87.697 90.6844 88.1782 92.0657C89.2282 95.1282 90.3064 98.2188 91.2939 101.341L91.622 102.422C96.8345 98.8501 100.881 93.6876 103.006 87.6219L101.959 87.5626ZM100.372 61.9844L99.5626 62.8563C97.3157 65.2594 95.0095 67.5688 92.7001 69.8813C91.2314 71.3813 89.6439 72.8219 88.1157 74.2938C90.1532 74.8032 92.1907 75.3438 94.2282 75.9438C97.3751 76.8438 100.491 77.7157 103.606 78.7344L104.716 79.0938C104.747 78.6126 104.747 78.1032 104.747 77.5938C104.747 71.8626 103.159 66.5188 100.372 61.9844ZM100.372 61.9844L99.5626 62.8563C97.3157 65.2594 95.0095 67.5688 92.7001 69.8813C91.2314 71.3813 89.6439 72.8219 88.1157 74.2938C90.1532 74.8032 92.1907 75.3438 94.2282 75.9438C97.3751 76.8438 100.491 77.7157 103.606 78.7344L104.716 79.0938C104.747 78.6126 104.747 78.1032 104.747 77.5938C104.747 71.8626 103.159 66.5188 100.372 61.9844ZM101.959 87.5626C98.6939 87.3532 95.4564 87.0532 92.1907 86.7532C90.7814 86.6344 89.4032 86.4844 87.997 86.3313C87.097 86.2126 86.3782 87.1126 86.7095 87.9813C87.2189 89.3313 87.697 90.6844 88.1782 92.0657C89.2282 95.1282 90.3064 98.2188 91.2939 101.341L91.622 102.422C96.8345 98.8501 100.881 93.6876 103.006 87.6219L101.959 87.5626ZM79.1001 47.9063L79.2501 49.0782C79.6689 52.3188 79.9689 55.5938 80.2689 58.8344C80.3876 60.1251 80.5095 61.3876 80.597 62.6782C80.6564 63.6688 81.7657 64.1782 82.5751 63.6094C83.5939 62.8594 84.6439 62.1094 85.722 61.3876C88.4189 59.5563 91.0845 57.7251 93.8407 55.9532L94.8595 55.3219C90.5751 51.4188 85.122 48.7469 79.1001 47.9063ZM79.1001 47.9063L79.2501 49.0782C79.6689 52.3188 79.9689 55.5938 80.2689 58.8344C80.3876 60.1251 80.5095 61.3876 80.597 62.6782C80.6564 63.6688 81.7657 64.1782 82.5751 63.6094C83.5939 62.8594 84.6439 62.1094 85.722 61.3876C88.4189 59.5563 91.0845 57.7251 93.8407 55.9532L94.8595 55.3219C90.5751 51.4188 85.122 48.7469 79.1001 47.9063ZM100.372 61.9844L99.5626 62.8563C97.3157 65.2594 95.0095 67.5688 92.7001 69.8813C91.2314 71.3813 89.6439 72.8219 88.1157 74.2938C90.1532 74.8032 92.1907 75.3438 94.2282 75.9438C97.3751 76.8438 100.491 77.7157 103.606 78.7344L104.716 79.0938C104.747 78.6126 104.747 78.1032 104.747 77.5938C104.747 71.8626 103.159 66.5188 100.372 61.9844ZM100.372 61.9844L99.5626 62.8563C97.3157 65.2594 95.0095 67.5688 92.7001 69.8813C91.2314 71.3813 89.6439 72.8219 88.1157 74.2938C90.1532 74.8032 92.1907 75.3438 94.2282 75.9438C97.3751 76.8438 100.491 77.7157 103.606 78.7344L104.716 79.0938C104.747 78.6126 104.747 78.1032 104.747 77.5938C104.747 71.8626 103.159 66.5188 100.372 61.9844ZM79.1001 47.9063L79.2501 49.0782C79.6689 52.3188 79.9689 55.5938 80.2689 58.8344C80.3876 60.1251 80.5095 61.3876 80.597 62.6782C80.6564 63.6688 81.7657 64.1782 82.5751 63.6094C83.5939 62.8594 84.6439 62.1094 85.722 61.3876C88.4189 59.5563 91.0845 57.7251 93.8407 55.9532L94.8595 55.3219C90.5751 51.4188 85.122 48.7469 79.1001 47.9063ZM79.1001 47.9063L79.2501 49.0782C79.6689 52.3188 79.9689 55.5938 80.2689 58.8344C80.3876 60.1251 80.5095 61.3876 80.597 62.6782C80.6564 63.6688 81.7657 64.1782 82.5751 63.6094C83.5939 62.8594 84.6439 62.1094 85.722 61.3876C88.4189 59.5563 91.0845 57.7251 93.8407 55.9532L94.8595 55.3219C90.5751 51.4188 85.122 48.7469 79.1001 47.9063ZM100.372 61.9844L99.5626 62.8563C97.3157 65.2594 95.0095 67.5688 92.7001 69.8813C91.2314 71.3813 89.6439 72.8219 88.1157 74.2938C90.1532 74.8032 92.1907 75.3438 94.2282 75.9438C97.3751 76.8438 100.491 77.7157 103.606 78.7344L104.716 79.0938C104.747 78.6126 104.747 78.1032 104.747 77.5938C104.747 71.8626 103.159 66.5188 100.372 61.9844ZM100.372 61.9844L99.5626 62.8563C97.3157 65.2594 95.0095 67.5688 92.7001 69.8813C91.2314 71.3813 89.6439 72.8219 88.1157 74.2938C90.1532 74.8032 92.1907 75.3438 94.2282 75.9438C97.3751 76.8438 100.491 77.7157 103.606 78.7344L104.716 79.0938C104.747 78.6126 104.747 78.1032 104.747 77.5938C104.747 71.8626 103.159 66.5188 100.372 61.9844ZM79.1001 47.9063L79.2501 49.0782C79.6689 52.3188 79.9689 55.5938 80.2689 58.8344C80.3876 60.1251 80.5095 61.3876 80.597 62.6782C80.6564 63.6688 81.7657 64.1782 82.5751 63.6094C83.5939 62.8594 84.6439 62.1094 85.722 61.3876C88.4189 59.5563 91.0845 57.7251 93.8407 55.9532L94.8595 55.3219C90.5751 51.4188 85.122 48.7469 79.1001 47.9063ZM79.1001 47.9063L79.2501 49.0782C79.6689 52.3188 79.9689 55.5938 80.2689 58.8344C80.3876 60.1251 80.5095 61.3876 80.597 62.6782C80.6564 63.6688 81.7657 64.1782 82.5751 63.6094C83.5939 62.8594 84.6439 62.1094 85.722 61.3876C88.4189 59.5563 91.0845 57.7251 93.8407 55.9532L94.8595 55.3219C90.5751 51.4188 85.122 48.7469 79.1001 47.9063ZM79.1001 47.9063L79.2501 49.0782C79.6689 52.3188 79.9689 55.5938 80.2689 58.8344C80.3876 60.1251 80.5095 61.3876 80.597 62.6782C80.6564 63.6688 81.7657 64.1782 82.5751 63.6094C83.5939 62.8594 84.6439 62.1094 85.722 61.3876C88.4189 59.5563 91.0845 57.7251 93.8407 55.9532L94.8595 55.3219C90.5751 51.4188 85.122 48.7469 79.1001 47.9063Z" fill="#0277BD"/>
</svg>
