<svg width="150" height="150" viewBox="0 0 150 150" fill="none" xmlns="http://www.w3.org/2000/svg">
<path d="M97.6416 89.9756C100.222 88.2119 103.801 86.6856 103.801 86.6856C103.801 86.6856 93.6147 88.5283 83.4812 89.3706C71.0843 90.3969 57.7659 90.6072 51.0804 89.7125C35.2612 87.6069 59.766 81.7895 59.766 81.7895C59.766 81.7895 50.2641 81.1584 38.5513 86.7904C24.7331 93.4763 72.7685 96.5293 97.6416 89.9756Z" fill="#5382A1"/>
<path d="M75.1641 81.5265C70.1632 70.2876 53.2914 60.4169 75.1641 43.1505C102.459 21.6202 88.4561 7.61719 88.4561 7.61719C94.1151 29.8585 68.5577 36.5968 59.3186 50.4152C53.0277 59.8644 62.3983 69.9981 75.1641 81.5265Z" fill="#F8981D"/>
<path d="M105.328 35.1489C105.354 35.1489 59.2133 46.6775 81.244 72.0507C87.7453 79.5261 79.5331 86.2644 79.5331 86.2644C79.5331 86.2644 96.0366 77.7366 88.456 67.0764C81.3755 57.1269 75.9533 52.1786 105.328 35.1489Z" fill="#F8981D"/>
<path d="M103.722 106.347C103.591 106.663 103.196 107.006 103.196 107.032C136.965 98.1616 124.542 75.7357 108.407 81.4216C106.985 81.9217 106.249 83.0798 106.249 83.0798C106.249 83.0798 107.144 82.711 109.145 82.29C117.303 80.5793 129.017 93.2133 103.722 106.347Z" fill="#5382A1"/>
<path d="M116.145 122.745C116.145 122.745 119.962 125.878 111.96 128.326C96.7207 132.932 48.5798 134.326 35.2087 128.51C30.392 126.43 39.4198 123.509 42.2628 122.904C45.2104 122.272 46.9213 122.377 46.9213 122.377C41.5781 118.613 12.3618 129.773 32.0763 132.958C85.8237 141.696 130.096 129.036 116.145 122.745Z" fill="#5382A1"/>
<path d="M57.292 111.848C36.5773 117.639 69.8999 129.589 96.2729 118.297C91.9569 116.613 88.8509 114.665 88.8509 114.665C77.0852 116.902 71.6372 117.06 60.9506 115.849C52.1331 114.849 57.292 111.848 57.292 111.848Z" fill="#5382A1"/>
<path d="M104.617 137.433C83.9024 141.328 58.345 140.881 43.21 138.38C43.21 138.354 46.316 140.933 62.2664 141.96C86.5342 143.513 123.805 141.091 124.673 129.615C124.674 129.615 122.989 133.958 104.617 137.433Z" fill="#5382A1"/>
<path d="M93.1413 100.53C77.5589 103.531 68.531 103.452 57.1343 102.268C48.3165 101.346 54.0809 97.0828 54.0809 97.0828C31.2346 104.663 66.7677 113.244 98.6945 103.9C95.2996 102.715 93.1413 100.53 93.1413 100.53Z" fill="#5382A1"/>
</svg>
