<svg width="150" height="150" viewBox="0 0 150 150" fill="none" xmlns="http://www.w3.org/2000/svg">
<path d="M142.382 7.61743H7.61768V142.382H142.382V7.61743Z" fill="#F0DB4F"/>
<path d="M80.9564 112.722C80.9564 125.838 73.2555 131.824 62.0348 131.824C51.8978 131.824 46.0319 126.59 43.0234 120.243L53.3412 114.016C55.3267 117.536 57.1316 120.513 61.4934 120.513C65.6444 120.513 68.2923 118.889 68.2923 112.542V69.4951H80.9564V112.722Z" fill="#323330"/>
<path d="M110.917 131.824C99.1554 131.824 91.5449 126.228 87.8447 118.889L98.1628 112.932C100.87 117.355 104.419 120.633 110.646 120.633C115.881 120.633 119.249 118.017 119.249 114.377C119.249 110.045 115.82 108.511 110.015 105.954L106.856 104.601C97.7116 100.72 91.665 95.8165 91.665 85.499C91.665 75.9931 98.9145 68.7734 110.195 68.7734C118.257 68.7734 124.032 71.571 128.184 78.911L118.317 85.228C116.151 81.3474 113.805 79.8137 110.165 79.8137C106.465 79.8137 104.118 82.1603 104.118 85.228C104.118 89.0185 106.465 90.553 111.909 92.9287L115.068 94.2825C125.837 98.8851 131.883 103.608 131.883 114.197C131.884 125.567 122.919 131.824 110.917 131.824Z" fill="#323330"/>
</svg>
