<svg width="150" height="94" viewBox="0 0 150 94" fill="none" xmlns="http://www.w3.org/2000/svg">
<path d="M74.3267 91.7941C73.8465 91.7941 73.3688 91.6688 72.9485 91.4254L68.5606 88.8293C67.9057 88.4625 68.2258 88.3329 68.4415 88.2576C69.3156 87.9543 69.4925 87.8842 70.4254 87.3553C70.5225 87.3007 70.6514 87.3214 70.7517 87.3803L74.1225 89.3816C74.2448 89.4494 74.4172 89.4494 74.5294 89.3816L87.6708 81.7967C87.7932 81.727 87.8715 81.5862 87.8715 81.4411V66.2757C87.8715 66.1273 87.7929 65.9888 87.6675 65.9135L74.5317 58.3352C74.4106 58.2642 74.2491 58.2642 74.1267 58.3352L60.9942 65.9158C60.8665 65.9889 60.7856 66.1319 60.7856 66.2757V81.4411C60.7856 81.5862 60.8662 81.7237 60.9929 81.7925L64.5929 83.8724C66.5461 84.849 67.7419 83.6987 67.7419 82.5431V67.5694C67.7419 67.3579 67.9123 67.1908 68.1238 67.1908H69.7902C69.9988 67.1908 70.1711 67.3579 70.1711 67.5694V82.5431C70.1711 85.15 68.7514 86.6451 66.28 86.6451C65.5205 86.6451 64.9225 86.6451 63.2531 85.8224L59.807 83.8385C58.956 83.3464 58.4287 82.4263 58.4287 81.4411V66.2757C58.4287 65.2905 58.9557 64.3704 59.807 63.8806L72.9485 56.2869C73.78 55.8165 74.8853 55.8165 75.7103 56.2869L88.8508 63.8806C89.7017 64.3727 90.231 65.2905 90.231 66.2757V81.4411C90.231 82.4263 89.7017 83.3431 88.8508 83.8385L75.7103 91.4257C75.2902 91.6688 74.8136 91.7941 74.3267 91.7941Z" fill="#699F63"/>
<path d="M78.3859 81.346C72.6353 81.346 71.4307 78.7065 71.4307 76.4924C71.4307 76.2819 71.5997 76.1138 71.8106 76.1138H73.5096C73.6994 76.1138 73.8576 76.2503 73.8872 76.4358C74.1438 78.1654 74.9086 79.0384 78.3863 79.0384C81.1547 79.0384 82.3333 78.4121 82.3333 76.9434C82.3333 76.0967 81.9994 75.468 77.6968 75.0467C74.1014 74.6911 71.8774 73.8967 71.8774 71.02C71.8774 68.3684 74.1122 66.7871 77.8596 66.7871C82.0695 66.7871 84.1527 68.2483 84.4165 71.3832C84.4264 71.4911 84.3882 71.595 84.3162 71.6756C84.2441 71.7509 84.1438 71.7966 84.0379 71.7966H82.3323C82.1557 71.7966 81.9994 71.6713 81.9636 71.4999C81.5543 69.6799 80.5593 69.0983 77.8596 69.0983C74.8369 69.0983 74.4856 70.1513 74.4856 70.9401C74.4856 71.896 74.9004 72.1743 78.9813 72.7144C83.0198 73.248 84.9382 74.0042 84.9382 76.8424C84.9376 79.7059 82.5501 81.346 78.3859 81.346Z" fill="#699F63"/>
<path d="M97.3352 65.4412C97.3352 66.8346 96.196 67.9737 94.8026 67.9737C93.422 67.9737 92.27 66.8481 92.27 65.4412C92.27 64.0073 93.4496 62.908 94.8026 62.908C96.1697 62.908 97.3352 64.0073 97.3352 65.4412ZM92.6789 65.4339C92.6789 66.6136 93.6302 67.5652 94.7957 67.5652C95.9753 67.5652 96.9269 66.5935 96.9269 65.4339C96.9269 64.255 95.9625 63.3168 94.7957 63.3168C93.6434 63.3172 92.6789 64.2412 92.6789 65.4339ZM93.8509 64.0205H94.8299C95.1648 64.0205 95.8217 64.0205 95.8217 64.7711C95.8217 65.2938 95.4868 65.4007 95.2848 65.4678C95.6743 65.4948 95.7006 65.7494 95.7539 66.1112C95.7812 66.3389 95.8217 66.7277 95.9013 66.8616H95.299C95.2848 66.728 95.1911 66.004 95.1911 65.9642C95.1519 65.803 95.0973 65.7231 94.8967 65.7231H94.4013V66.8616H93.8513V64.0205H93.8509ZM94.3878 65.2665H94.8296C95.1908 65.2665 95.2585 65.0122 95.2585 64.8649C95.2585 64.4757 94.9901 64.4757 94.8427 64.4757H94.3878V65.2665Z" fill="#699F63"/>
<path d="M33.6327 32.4595C33.6327 31.8539 33.3139 31.2974 32.7912 30.9974L18.8587 22.9793C18.6231 22.8408 18.359 22.7688 18.0916 22.7576C18.0676 22.7576 17.9672 22.7576 17.9475 22.7576C17.6814 22.7684 17.4172 22.8405 17.1781 22.9793L3.24551 30.9974C2.7261 31.2974 2.40308 31.8539 2.40308 32.4595L2.43367 54.05C2.43367 54.35 2.58959 54.6296 2.85373 54.7766C3.11229 54.9316 3.43202 54.9316 3.68959 54.7766L11.9699 50.0352C12.4935 49.7243 12.8123 49.1753 12.8123 48.5753V38.4882C12.8123 37.8868 13.1307 37.3303 13.6524 37.0316L17.1781 35.001C17.4409 34.8493 17.7281 34.775 18.0215 34.775C18.3083 34.775 18.6031 34.8493 18.8583 35.001L22.383 37.0316C22.9047 37.3306 23.2245 37.8872 23.2245 38.4882V48.5753C23.2245 49.1753 23.5475 49.7276 24.0679 50.0352L32.3458 54.7766C32.6054 54.9316 32.9297 54.9316 33.1873 54.7766C33.4439 54.6293 33.6054 54.35 33.6054 54.05L33.6327 32.4595Z" fill="#333333"/>
<path d="M100.671 2.78005C100.41 2.63498 100.092 2.63827 99.8346 2.78926C99.5777 2.94057 99.4195 3.21656 99.4195 3.51492V24.8965C99.4195 25.1067 99.307 25.3014 99.1254 25.4067C98.9432 25.512 98.7185 25.512 98.536 25.4067L95.0465 23.3962C94.5258 23.0962 93.8853 23.0968 93.3649 23.3968L79.4267 31.4406C78.9057 31.7412 78.585 32.2968 78.585 32.8978V48.9886C78.585 49.5899 78.9057 50.1452 79.4264 50.4465L93.3639 58.4962C93.885 58.7968 94.5264 58.7968 95.0475 58.4962L108.987 50.4465C109.508 50.1455 109.828 49.5899 109.828 48.9886V8.87807C109.828 8.26821 109.498 7.70538 108.965 7.40801L100.671 2.78005ZM99.3781 43.7018C99.3781 43.8518 99.2978 43.9909 99.1675 44.0656L94.382 46.8241C94.2521 46.8988 94.0919 46.8988 93.9619 46.8241L89.1764 44.0656C89.0462 43.9909 88.9659 43.8518 88.9659 43.7018V38.1758C88.9659 38.0258 89.0462 37.8866 89.1761 37.8113L93.9616 35.0472C94.0919 34.9718 94.2524 34.9718 94.3827 35.0472L99.1682 37.8113C99.2981 37.8866 99.3784 38.0258 99.3784 38.1758L99.3781 43.7018Z" fill="#333333"/>
<path d="M147.083 38.0312C147.601 37.7302 147.92 37.1756 147.92 36.5759V32.6766C147.92 32.0769 147.601 31.522 147.082 31.221L133.234 23.1805C132.712 22.8776 132.069 22.8772 131.547 23.1782L117.614 31.222C117.093 31.5226 116.773 32.0779 116.773 32.6792V48.7657C116.773 49.3707 117.097 49.9289 117.623 50.2279L131.469 58.1177C131.98 58.4091 132.606 58.4124 133.119 58.1269L141.494 53.472C141.76 53.3243 141.926 53.0453 141.927 52.742C141.929 52.4387 141.768 52.1578 141.505 52.0065L127.483 43.9588C127.221 43.8088 127.061 43.5299 127.061 43.2285V38.1871C127.061 37.8864 127.221 37.6081 127.482 37.4581L131.845 34.9424C132.105 34.7924 132.426 34.7924 132.686 34.9424L137.052 37.4581C137.312 37.6081 137.473 37.8864 137.473 38.1871V42.1535C137.473 42.4549 137.634 42.7332 137.894 42.8832C138.155 43.0338 138.477 43.0325 138.737 42.8815L147.083 38.0312Z" fill="#333333"/>
<path d="M132.185 37.2776C132.285 37.2197 132.408 37.2197 132.508 37.2776L135.182 38.8203C135.282 38.8782 135.344 38.9845 135.344 39.1002V42.1884C135.344 42.3042 135.282 42.4104 135.182 42.4683L132.508 44.0111C132.408 44.069 132.285 44.069 132.185 44.0111L129.513 42.4683C129.413 42.4104 129.351 42.3042 129.351 42.1884V39.1002C129.351 38.9845 129.413 38.8782 129.513 38.8203L132.185 37.2776Z" fill="#699F63"/>
<path d="M56.9474 23.2621C56.4296 22.9631 55.7915 22.9631 55.274 23.2621L41.4142 31.2601C40.8957 31.5591 40.5767 32.1114 40.5767 32.7101V48.7187C40.5767 49.3167 40.8957 49.869 41.4135 50.1687L55.2734 58.1733C55.7915 58.4723 56.4296 58.4723 56.948 58.1733L70.8046 50.1687C71.3224 49.8693 71.6411 49.3167 71.6411 48.7187V32.7095C71.6411 32.1114 71.3221 31.5591 70.804 31.2601L56.9474 23.2621Z" fill="url(#paint0_linear_34:520)"/>
<path d="M70.8311 31.2599L56.9325 23.2619C56.7953 23.1826 56.6486 23.126 56.4976 23.0889L40.8923 49.7836C41.0269 49.9349 41.1844 50.0668 41.3594 50.1681L55.2815 58.1727C55.6759 58.4004 56.1446 58.4537 56.5746 58.3346L71.2038 31.5464C71.0927 31.4366 70.968 31.3389 70.8311 31.2599Z" fill="url(#paint1_linear_34:520)"/>
<path d="M54.8114 20.322L54.6206 20.4309H54.8752L54.8114 20.322Z" fill="url(#paint2_linear_34:520)"/>
<path d="M70.8391 50.1687C71.2431 49.9352 71.5444 49.5467 71.6585 49.1036L56.4227 23.0746C56.025 22.9954 55.6029 23.0556 55.2447 23.2625L41.4395 31.2125L56.3529 58.3815C56.5658 58.3526 56.7743 58.2835 56.9651 58.1737L70.8391 50.1687Z" fill="url(#paint3_linear_34:520)"/>
<path d="M72.1311 49.9111L72.0393 49.7542V49.9644L72.1311 49.9111Z" fill="url(#paint4_linear_34:520)"/>
<path d="M70.839 50.1686L56.965 58.1733C56.7742 58.2835 56.5656 58.3522 56.3528 58.3812L56.6291 58.8844L72.0393 49.9644V49.7542L71.6584 49.1035C71.5442 49.5466 71.2429 49.9348 70.839 50.1686Z" fill="url(#paint5_linear_34:520)"/>
<path d="M70.839 50.1686L56.965 58.1733C56.7742 58.2835 56.5656 58.3522 56.3528 58.3812L56.6291 58.8844L72.0393 49.9644V49.7542L71.6584 49.1035C71.5442 49.5466 71.2429 49.9348 70.839 50.1686Z" fill="url(#paint6_linear_34:520)"/>
<defs>
<linearGradient id="paint0_linear_34:520" x1="61.7441" y1="29.2186" x2="49.2228" y2="54.7621" gradientUnits="userSpaceOnUse">
<stop stop-color="#41873F"/>
<stop offset="0.3288" stop-color="#418B3D"/>
<stop offset="0.6352" stop-color="#419637"/>
<stop offset="0.9319" stop-color="#3FA92D"/>
<stop offset="1" stop-color="#3FAE2A"/>
</linearGradient>
<linearGradient id="paint1_linear_34:520" x1="53.999" y1="42.5862" x2="89.133" y2="16.6274" gradientUnits="userSpaceOnUse">
<stop offset="0.1376" stop-color="#41873F"/>
<stop offset="0.4032" stop-color="#54A044"/>
<stop offset="0.7136" stop-color="#66B848"/>
<stop offset="0.9081" stop-color="#6CC04A"/>
</linearGradient>
<linearGradient id="paint2_linear_34:520" x1="40.086" y1="20.3765" x2="72.1314" y2="20.3765" gradientUnits="userSpaceOnUse">
<stop offset="0.0919" stop-color="#6CC04A"/>
<stop offset="0.2864" stop-color="#66B848"/>
<stop offset="0.5968" stop-color="#54A044"/>
<stop offset="0.8624" stop-color="#41873F"/>
</linearGradient>
<linearGradient id="paint3_linear_34:520" x1="40.0863" y1="40.7113" x2="72.1313" y2="40.7113" gradientUnits="userSpaceOnUse">
<stop offset="0.0919" stop-color="#6CC04A"/>
<stop offset="0.2864" stop-color="#66B848"/>
<stop offset="0.5968" stop-color="#54A044"/>
<stop offset="0.8624" stop-color="#41873F"/>
</linearGradient>
<linearGradient id="paint4_linear_34:520" x1="40.0843" y1="49.8593" x2="72.1312" y2="49.8593" gradientUnits="userSpaceOnUse">
<stop offset="0.0919" stop-color="#6CC04A"/>
<stop offset="0.2864" stop-color="#66B848"/>
<stop offset="0.5968" stop-color="#54A044"/>
<stop offset="0.8624" stop-color="#41873F"/>
</linearGradient>
<linearGradient id="paint5_linear_34:520" x1="40.0861" y1="53.994" x2="72.1312" y2="53.994" gradientUnits="userSpaceOnUse">
<stop offset="0.0919" stop-color="#6CC04A"/>
<stop offset="0.2864" stop-color="#66B848"/>
<stop offset="0.5968" stop-color="#54A044"/>
<stop offset="0.8624" stop-color="#41873F"/>
</linearGradient>
<linearGradient id="paint6_linear_34:520" x1="76.7997" y1="28.4612" x2="57.0364" y2="68.7784" gradientUnits="userSpaceOnUse">
<stop stop-color="#41873F"/>
<stop offset="0.3288" stop-color="#418B3D"/>
<stop offset="0.6352" stop-color="#419637"/>
<stop offset="0.9319" stop-color="#3FA92D"/>
<stop offset="1" stop-color="#3FAE2A"/>
</linearGradient>
</defs>
</svg>
