<svg width="150" height="150" viewBox="0 0 150 150" fill="none" xmlns="http://www.w3.org/2000/svg">
<path d="M56.8376 70.3864H87.6152C96.1746 70.3864 103.005 63.3256 103.005 54.7378V25.3721C103.005 17.0151 95.9727 10.7614 87.6152 9.34932C77.2986 7.64893 66.0884 7.73535 56.8376 9.37774C43.8117 11.6834 41.4489 16.4963 41.4489 25.4011V31.6861H72.2551V41.0491H29.8927C20.9305 41.0491 13.0912 46.438 10.642 56.6688C7.81781 68.3978 7.70267 75.7176 10.642 87.9654C12.8323 97.0724 18.0483 103.585 27.0108 103.585H37.5872V89.522C37.5869 79.3492 46.3766 70.3864 56.8376 70.3864Z" fill="#347AB4"/>
<path d="M139.153 61.3396C136.934 52.4348 132.727 45.72 123.764 45.72H112.209V59.3799C112.209 69.9851 103.217 78.9183 92.9579 78.9183H62.1801C53.7648 78.9183 46.791 86.1236 46.791 94.5669V123.904C46.791 132.261 54.0531 137.16 62.1801 139.553C71.9204 142.405 81.286 142.924 92.9576 139.553C100.71 137.304 108.347 132.78 108.347 123.904V117.753H77.5981V108.256H123.764C132.727 108.256 136.041 102.002 139.153 92.6363C142.381 82.9818 142.237 73.7023 139.153 61.3396Z" fill="#FFCA1D"/>
<path d="M54.9067 26.2484C51.8367 26.2484 49.3477 23.7315 49.3477 20.634C49.3752 17.5086 51.8367 14.9917 54.9067 14.9917C57.9492 14.9917 60.4661 17.5361 60.4661 20.634C60.4658 23.7315 57.9768 26.2484 54.9067 26.2484Z" fill="white"/>
<path d="M92.2581 134.788C89.1881 134.788 86.6987 132.271 86.6987 129.174C86.7266 126.048 89.1878 123.531 92.2581 123.531C95.3006 123.531 97.8175 126.076 97.8175 129.174C97.8175 132.271 95.3284 134.788 92.2581 134.788Z" fill="white"/>
</svg>
