<svg width="20" height="20" viewBox="0 0 20 20" fill="none" xmlns="http://www.w3.org/2000/svg">
<path d="M10.8401 5.75098H8.98438V7.4382H10.8401V5.75098Z" fill="#099CEC"/>
<path d="M10.8401 7.77783H8.98438V9.44541H10.8401V7.77783Z" fill="#099CEC"/>
<path d="M8.6477 5.75098H6.79199V7.4382H8.6477V5.75098Z" fill="#099CEC"/>
<path d="M13.0354 7.77539H11.1797V9.44301H13.0354V7.77539Z" fill="#099CEC"/>
<path d="M10.8401 3.70996H8.98438V5.41407H10.8401V3.70996Z" fill="#099CEC"/>
<path d="M6.45478 5.75098H4.59912V7.4382H6.45478V5.75098Z" fill="#099CEC"/>
<path d="M8.6477 7.77539H6.79199V9.44301H8.6477V7.77539Z" fill="#099CEC"/>
<path d="M18.6109 8.55822C18.2066 8.28588 17.2746 8.18764 16.5587 8.32244C16.4661 7.64865 16.0898 7.06189 15.4049 6.53408L15.0118 6.27295L14.7507 6.666C14.2341 7.44647 14.0938 8.73225 14.6469 9.58014C14.4027 9.71205 13.9225 9.89178 13.288 9.88049H1.08421C0.839996 11.3067 1.24707 13.1596 2.31953 14.4313C3.36105 15.6638 4.92199 16.2899 6.96297 16.2899C11.3819 16.2899 14.6525 14.2546 16.1825 10.5571C16.7834 10.5683 18.0803 10.5599 18.7457 9.28818C18.7878 9.21799 18.931 8.91756 18.9843 8.80807L18.6109 8.55822Z" fill="#099CEC"/>
<path d="M4.26537 7.77539H4.26252H2.40967V9.44301H4.26537V7.77539Z" fill="#099CEC"/>
<path d="M6.45478 7.77539H4.59912V9.44301H6.45478V7.77539Z" fill="#099CEC"/>
</svg>
