<svg width="20" height="20" viewBox="0 0 20 20" fill="none" xmlns="http://www.w3.org/2000/svg">
<path d="M9.98338 11.6601C10.9075 11.6601 11.6567 10.911 11.6567 9.9868C11.6567 9.06265 10.9075 8.31348 9.98338 8.31348C9.05923 8.31348 8.31006 9.06265 8.31006 9.9868C8.31006 10.911 9.05923 11.6601 9.98338 11.6601Z" fill="#00D8FF"/>
<path d="M9.98337 13.8199C7.63337 13.8199 5.58003 13.5432 4.04337 13.0165C3.0467 12.6765 2.20003 12.2232 1.5967 11.7065C0.956699 11.1599 0.616699 10.5632 0.616699 9.98652C0.616699 8.87986 1.83003 7.79652 3.8667 7.08986C5.53337 6.50986 7.7067 6.18652 9.98003 6.18652C12.2134 6.18652 14.3567 6.49986 16.0134 7.07319C16.9834 7.40652 17.8 7.83986 18.38 8.31986C19.01 8.84652 19.3434 9.42319 19.3434 9.98652C19.3434 11.1365 17.9867 12.2999 15.8 13.0232C14.2534 13.5365 12.1867 13.8199 9.98337 13.8199ZM9.98337 6.98652C7.8267 6.98652 5.69337 7.29986 4.13337 7.84319C2.26003 8.49652 1.42003 9.38986 1.42003 9.98652C1.42003 10.6065 2.32337 11.5832 4.30337 12.2599C5.7567 12.7565 7.72337 13.0199 9.98337 13.0199C12.1034 13.0199 14.08 12.7532 15.55 12.2632C17.6067 11.5799 18.5467 10.6032 18.5467 9.98652C18.5467 9.66986 18.3067 9.29652 17.87 8.93319C17.3667 8.51319 16.6334 8.12986 15.7567 7.82652C14.18 7.28652 12.13 6.98652 9.98337 6.98652Z" fill="#00D8FF"/>
<path d="M6.18679 18.3268C5.84679 18.3268 5.54679 18.2534 5.29346 18.1068C4.33679 17.5534 4.00346 15.9601 4.40679 13.8434C4.73679 12.1068 5.54346 10.0668 6.68013 8.09676C7.79679 6.16342 9.13679 4.46342 10.4601 3.31342C11.2335 2.64008 12.0168 2.14675 12.7235 1.88675C13.4935 1.60341 14.1601 1.60341 14.6468 1.88341C15.6435 2.45675 15.9735 4.21675 15.5068 6.47009C15.1768 8.07009 14.3901 10.0001 13.2901 11.9101C12.1168 13.9434 10.8501 15.5834 9.62679 16.6534C8.83346 17.3468 8.01679 17.8534 7.27013 18.1168C6.88013 18.2568 6.51346 18.3268 6.18679 18.3268ZM7.02346 8.29676L7.37013 8.49676C6.29346 10.3634 5.49679 12.3668 5.19013 13.9934C4.82013 15.9434 5.17679 17.1168 5.69013 17.4134C5.81679 17.4868 5.98346 17.5268 6.18679 17.5268C6.85013 17.5268 7.89346 17.1068 9.10012 16.0534C10.2568 15.0434 11.4668 13.4701 12.5968 11.5134C13.6568 9.67676 14.4101 7.83009 14.7235 6.31342C15.1601 4.19008 14.7835 2.89008 14.2468 2.58008C13.9735 2.42341 13.5301 2.44341 12.9968 2.64008C12.3801 2.86675 11.6835 3.31008 10.9835 3.92008C9.72679 5.01342 8.44346 6.64009 7.37013 8.50009L7.02346 8.29676Z" fill="#00D8FF"/>
<path d="M13.7804 18.3363C12.8737 18.3363 11.7237 17.7896 10.5237 16.7563C9.1837 15.6029 7.82037 13.8863 6.68037 11.9163C5.56037 9.98293 4.76037 7.97293 4.4237 6.24959C4.22703 5.24292 4.19037 4.31959 4.31703 3.57625C4.45703 2.76625 4.78703 2.18958 5.27703 1.90625C6.27037 1.32958 7.96037 1.92292 9.68037 3.45292C10.9004 4.53626 12.1804 6.18292 13.2837 8.0896C14.4604 10.1229 15.2504 12.0396 15.5637 13.6329C15.767 14.6663 15.8004 15.6263 15.657 16.4063C15.5037 17.2363 15.157 17.8263 14.657 18.1163C14.407 18.2629 14.1104 18.3363 13.7804 18.3363ZM7.3737 11.5163C8.4537 13.3829 9.7937 15.0729 11.047 16.1496C12.5504 17.4429 13.7437 17.7229 14.2604 17.4229C14.797 17.1129 15.1904 15.8429 14.7837 13.7896C14.4837 12.2829 13.727 10.4496 12.5937 8.49293C11.5304 6.65626 10.307 5.07959 9.15037 4.05292C7.53037 2.61292 6.21703 2.28958 5.68037 2.59959C5.40703 2.75625 5.2037 3.15292 5.10703 3.71292C4.99703 4.35959 5.03037 5.18626 5.21037 6.09626C5.53037 7.73293 6.29703 9.65627 7.3737 11.5163Z" fill="#00D8FF"/>
</svg>
